<svg xmlns="http://www.w3.org/2000/svg" xmlns:xlink="http://www.w3.org/1999/xlink" width="600" height="400" viewBox="0 0 2400 1600">
<defs>
  <clipPath id="clip370">
    <rect x="0" y="0" width="2400" height="1600"></rect>
  </clipPath>
</defs>
<path clip-path="url(#clip370)" d="M0 1600 L2400 1600 L2400 8.88178e-14 L0 8.88178e-14  Z" fill="#ffffff" fill-rule="evenodd" fill-opacity="1"></path>
<defs>
  <clipPath id="clip371">
    <rect x="480" y="0" width="1681" height="1600"></rect>
  </clipPath>
</defs>
<path clip-path="url(#clip370)" d="M286.371 1423.18 L2352.76 1423.18 L2352.76 123.472 L286.371 123.472  Z" fill="#ffffff" fill-rule="evenodd" fill-opacity="1"></path>
<defs>
  <clipPath id="clip372">
    <rect x="286" y="123" width="2067" height="1301"></rect>
  </clipPath>
</defs>
<polyline clip-path="url(#clip372)" style="stroke:#000000; stroke-linecap:round; stroke-linejoin:round; stroke-width:2; stroke-opacity:0.1; fill:none" points="623.342,1423.18 623.342,123.472 "></polyline>
<polyline clip-path="url(#clip372)" style="stroke:#000000; stroke-linecap:round; stroke-linejoin:round; stroke-width:2; stroke-opacity:0.1; fill:none" points="971.452,1423.18 971.452,123.472 "></polyline>
<polyline clip-path="url(#clip372)" style="stroke:#000000; stroke-linecap:round; stroke-linejoin:round; stroke-width:2; stroke-opacity:0.1; fill:none" points="1319.56,1423.18 1319.56,123.472 "></polyline>
<polyline clip-path="url(#clip372)" style="stroke:#000000; stroke-linecap:round; stroke-linejoin:round; stroke-width:2; stroke-opacity:0.1; fill:none" points="1667.67,1423.18 1667.67,123.472 "></polyline>
<polyline clip-path="url(#clip372)" style="stroke:#000000; stroke-linecap:round; stroke-linejoin:round; stroke-width:2; stroke-opacity:0.1; fill:none" points="2015.78,1423.18 2015.78,123.472 "></polyline>
<polyline clip-path="url(#clip372)" style="stroke:#000000; stroke-linecap:round; stroke-linejoin:round; stroke-width:2; stroke-opacity:0.1; fill:none" points="286.371,1264.1 2352.76,1264.1 "></polyline>
<polyline clip-path="url(#clip372)" style="stroke:#000000; stroke-linecap:round; stroke-linejoin:round; stroke-width:2; stroke-opacity:0.1; fill:none" points="286.371,1042.48 2352.76,1042.48 "></polyline>
<polyline clip-path="url(#clip372)" style="stroke:#000000; stroke-linecap:round; stroke-linejoin:round; stroke-width:2; stroke-opacity:0.1; fill:none" points="286.371,820.85 2352.76,820.85 "></polyline>
<polyline clip-path="url(#clip372)" style="stroke:#000000; stroke-linecap:round; stroke-linejoin:round; stroke-width:2; stroke-opacity:0.1; fill:none" points="286.371,599.222 2352.76,599.222 "></polyline>
<polyline clip-path="url(#clip372)" style="stroke:#000000; stroke-linecap:round; stroke-linejoin:round; stroke-width:2; stroke-opacity:0.1; fill:none" points="286.371,377.595 2352.76,377.595 "></polyline>
<polyline clip-path="url(#clip372)" style="stroke:#000000; stroke-linecap:round; stroke-linejoin:round; stroke-width:2; stroke-opacity:0.1; fill:none" points="286.371,155.967 2352.76,155.967 "></polyline>
<polyline clip-path="url(#clip370)" style="stroke:#000000; stroke-linecap:round; stroke-linejoin:round; stroke-width:4; stroke-opacity:1; fill:none" points="286.371,1423.18 2352.76,1423.18 "></polyline>
<polyline clip-path="url(#clip370)" style="stroke:#000000; stroke-linecap:round; stroke-linejoin:round; stroke-width:4; stroke-opacity:1; fill:none" points="623.342,1423.18 623.342,1404.28 "></polyline>
<polyline clip-path="url(#clip370)" style="stroke:#000000; stroke-linecap:round; stroke-linejoin:round; stroke-width:4; stroke-opacity:1; fill:none" points="971.452,1423.18 971.452,1404.28 "></polyline>
<polyline clip-path="url(#clip370)" style="stroke:#000000; stroke-linecap:round; stroke-linejoin:round; stroke-width:4; stroke-opacity:1; fill:none" points="1319.56,1423.18 1319.56,1404.28 "></polyline>
<polyline clip-path="url(#clip370)" style="stroke:#000000; stroke-linecap:round; stroke-linejoin:round; stroke-width:4; stroke-opacity:1; fill:none" points="1667.67,1423.18 1667.67,1404.28 "></polyline>
<polyline clip-path="url(#clip370)" style="stroke:#000000; stroke-linecap:round; stroke-linejoin:round; stroke-width:4; stroke-opacity:1; fill:none" points="2015.78,1423.18 2015.78,1404.28 "></polyline>
<path clip-path="url(#clip370)" d="M569.87 1468.75 L599.546 1468.75 L599.546 1472.69 L569.87 1472.69 L569.87 1468.75 Z" fill="#000000" fill-rule="nonzero" fill-opacity="1"></path><path clip-path="url(#clip370)" d="M609.684 1451.02 L628.041 1451.02 L628.041 1454.96 L613.967 1454.96 L613.967 1463.43 Q614.985 1463.08 616.004 1462.92 Q617.022 1462.73 618.041 1462.73 Q623.828 1462.73 627.207 1465.9 Q630.587 1469.08 630.587 1474.49 Q630.587 1480.07 627.115 1483.17 Q623.643 1486.25 617.323 1486.25 Q615.147 1486.25 612.879 1485.88 Q610.633 1485.51 608.226 1484.77 L608.226 1480.07 Q610.309 1481.2 612.532 1481.76 Q614.754 1482.32 617.231 1482.32 Q621.235 1482.32 623.573 1480.21 Q625.911 1478.1 625.911 1474.49 Q625.911 1470.88 623.573 1468.77 Q621.235 1466.67 617.231 1466.67 Q615.356 1466.67 613.481 1467.08 Q611.629 1467.5 609.684 1468.38 L609.684 1451.02 Z" fill="#000000" fill-rule="nonzero" fill-opacity="1"></path><path clip-path="url(#clip370)" d="M639.8 1479.7 L644.684 1479.7 L644.684 1485.58 L639.8 1485.58 L639.8 1479.7 Z" fill="#000000" fill-rule="nonzero" fill-opacity="1"></path><path clip-path="url(#clip370)" d="M664.869 1454.1 Q661.258 1454.1 659.43 1457.66 Q657.624 1461.2 657.624 1468.33 Q657.624 1475.44 659.43 1479.01 Q661.258 1482.55 664.869 1482.55 Q668.504 1482.55 670.309 1479.01 Q672.138 1475.44 672.138 1468.33 Q672.138 1461.2 670.309 1457.66 Q668.504 1454.1 664.869 1454.1 M664.869 1450.39 Q670.679 1450.39 673.735 1455 Q676.814 1459.58 676.814 1468.33 Q676.814 1477.06 673.735 1481.67 Q670.679 1486.25 664.869 1486.25 Q659.059 1486.25 655.98 1481.67 Q652.925 1477.06 652.925 1468.33 Q652.925 1459.58 655.98 1455 Q659.059 1450.39 664.869 1450.39 Z" fill="#000000" fill-rule="nonzero" fill-opacity="1"></path><path clip-path="url(#clip370)" d="M918.478 1468.75 L948.154 1468.75 L948.154 1472.69 L918.478 1472.69 L918.478 1468.75 Z" fill="#000000" fill-rule="nonzero" fill-opacity="1"></path><path clip-path="url(#clip370)" d="M962.274 1481.64 L978.594 1481.64 L978.594 1485.58 L956.649 1485.58 L956.649 1481.64 Q959.311 1478.89 963.895 1474.26 Q968.501 1469.61 969.682 1468.27 Q971.927 1465.74 972.807 1464.01 Q973.709 1462.25 973.709 1460.56 Q973.709 1457.8 971.765 1456.07 Q969.844 1454.33 966.742 1454.33 Q964.543 1454.33 962.089 1455.09 Q959.659 1455.86 956.881 1457.41 L956.881 1452.69 Q959.705 1451.55 962.159 1450.97 Q964.612 1450.39 966.649 1450.39 Q972.02 1450.39 975.214 1453.08 Q978.408 1455.77 978.408 1460.26 Q978.408 1462.39 977.598 1464.31 Q976.811 1466.2 974.705 1468.8 Q974.126 1469.47 971.024 1472.69 Q967.922 1475.88 962.274 1481.64 Z" fill="#000000" fill-rule="nonzero" fill-opacity="1"></path><path clip-path="url(#clip370)" d="M988.408 1479.7 L993.293 1479.7 L993.293 1485.58 L988.408 1485.58 L988.408 1479.7 Z" fill="#000000" fill-rule="nonzero" fill-opacity="1"></path><path clip-path="url(#clip370)" d="M1003.52 1451.02 L1021.88 1451.02 L1021.88 1454.96 L1007.81 1454.96 L1007.81 1463.43 Q1008.82 1463.08 1009.84 1462.92 Q1010.86 1462.73 1011.88 1462.73 Q1017.67 1462.73 1021.05 1465.9 Q1024.43 1469.08 1024.43 1474.49 Q1024.43 1480.07 1020.95 1483.17 Q1017.48 1486.25 1011.16 1486.25 Q1008.99 1486.25 1006.72 1485.88 Q1004.47 1485.51 1002.07 1484.77 L1002.07 1480.07 Q1004.15 1481.2 1006.37 1481.76 Q1008.59 1482.32 1011.07 1482.32 Q1015.07 1482.32 1017.41 1480.21 Q1019.75 1478.1 1019.75 1474.49 Q1019.75 1470.88 1017.41 1468.77 Q1015.07 1466.67 1011.07 1466.67 Q1009.2 1466.67 1007.32 1467.08 Q1005.47 1467.5 1003.52 1468.38 L1003.52 1451.02 Z" fill="#000000" fill-rule="nonzero" fill-opacity="1"></path><path clip-path="url(#clip370)" d="M1296.95 1454.1 Q1293.34 1454.1 1291.51 1457.66 Q1289.7 1461.2 1289.7 1468.33 Q1289.7 1475.44 1291.51 1479.01 Q1293.34 1482.55 1296.95 1482.55 Q1300.58 1482.55 1302.39 1479.01 Q1304.22 1475.44 1304.22 1468.33 Q1304.22 1461.2 1302.39 1457.66 Q1300.58 1454.1 1296.95 1454.1 M1296.95 1450.39 Q1302.76 1450.39 1305.81 1455 Q1308.89 1459.58 1308.89 1468.33 Q1308.89 1477.06 1305.81 1481.67 Q1302.76 1486.25 1296.95 1486.25 Q1291.14 1486.25 1288.06 1481.67 Q1285 1477.06 1285 1468.33 Q1285 1459.58 1288.06 1455 Q1291.14 1450.39 1296.95 1450.39 Z" fill="#000000" fill-rule="nonzero" fill-opacity="1"></path><path clip-path="url(#clip370)" d="M1317.11 1479.7 L1321.99 1479.7 L1321.99 1485.58 L1317.11 1485.58 L1317.11 1479.7 Z" fill="#000000" fill-rule="nonzero" fill-opacity="1"></path><path clip-path="url(#clip370)" d="M1342.18 1454.1 Q1338.57 1454.1 1336.74 1457.66 Q1334.93 1461.2 1334.93 1468.33 Q1334.93 1475.44 1336.74 1479.01 Q1338.57 1482.55 1342.18 1482.55 Q1345.81 1482.55 1347.62 1479.01 Q1349.45 1475.44 1349.45 1468.33 Q1349.45 1461.2 1347.62 1457.66 Q1345.81 1454.1 1342.18 1454.1 M1342.18 1450.39 Q1347.99 1450.39 1351.04 1455 Q1354.12 1459.58 1354.12 1468.33 Q1354.12 1477.06 1351.04 1481.67 Q1347.99 1486.25 1342.18 1486.25 Q1336.37 1486.25 1333.29 1481.67 Q1330.23 1477.06 1330.23 1468.33 Q1330.23 1459.58 1333.29 1455 Q1336.37 1450.39 1342.18 1450.39 Z" fill="#000000" fill-rule="nonzero" fill-opacity="1"></path><path clip-path="url(#clip370)" d="M1639.41 1481.64 L1655.73 1481.64 L1655.73 1485.58 L1633.79 1485.58 L1633.79 1481.64 Q1636.45 1478.89 1641.03 1474.26 Q1645.64 1469.61 1646.82 1468.27 Q1649.06 1465.74 1649.94 1464.01 Q1650.85 1462.25 1650.85 1460.56 Q1650.85 1457.8 1648.9 1456.07 Q1646.98 1454.33 1643.88 1454.33 Q1641.68 1454.33 1639.23 1455.09 Q1636.79 1455.86 1634.02 1457.41 L1634.02 1452.69 Q1636.84 1451.55 1639.29 1450.97 Q1641.75 1450.39 1643.79 1450.39 Q1649.16 1450.39 1652.35 1453.08 Q1655.54 1455.77 1655.54 1460.26 Q1655.54 1462.39 1654.73 1464.31 Q1653.95 1466.2 1651.84 1468.8 Q1651.26 1469.47 1648.16 1472.69 Q1645.06 1475.88 1639.41 1481.64 Z" fill="#000000" fill-rule="nonzero" fill-opacity="1"></path><path clip-path="url(#clip370)" d="M1665.54 1479.7 L1670.43 1479.7 L1670.43 1485.58 L1665.54 1485.58 L1665.54 1479.7 Z" fill="#000000" fill-rule="nonzero" fill-opacity="1"></path><path clip-path="url(#clip370)" d="M1680.66 1451.02 L1699.02 1451.02 L1699.02 1454.96 L1684.94 1454.96 L1684.94 1463.43 Q1685.96 1463.08 1686.98 1462.92 Q1688 1462.73 1689.02 1462.73 Q1694.8 1462.73 1698.18 1465.9 Q1701.56 1469.08 1701.56 1474.49 Q1701.56 1480.07 1698.09 1483.17 Q1694.62 1486.25 1688.3 1486.25 Q1686.12 1486.25 1683.85 1485.88 Q1681.61 1485.51 1679.2 1484.77 L1679.2 1480.07 Q1681.29 1481.2 1683.51 1481.76 Q1685.73 1482.32 1688.21 1482.32 Q1692.21 1482.32 1694.55 1480.21 Q1696.89 1478.1 1696.89 1474.49 Q1696.89 1470.88 1694.55 1468.77 Q1692.21 1466.67 1688.21 1466.67 Q1686.33 1466.67 1684.46 1467.08 Q1682.6 1467.5 1680.66 1468.38 L1680.66 1451.02 Z" fill="#000000" fill-rule="nonzero" fill-opacity="1"></path><path clip-path="url(#clip370)" d="M1982.95 1451.02 L2001.31 1451.02 L2001.31 1454.96 L1987.23 1454.96 L1987.23 1463.43 Q1988.25 1463.08 1989.27 1462.92 Q1990.29 1462.73 1991.31 1462.73 Q1997.09 1462.73 2000.47 1465.9 Q2003.85 1469.08 2003.85 1474.49 Q2003.85 1480.07 2000.38 1483.17 Q1996.91 1486.25 1990.59 1486.25 Q1988.41 1486.25 1986.14 1485.88 Q1983.9 1485.51 1981.49 1484.77 L1981.49 1480.07 Q1983.57 1481.2 1985.8 1481.76 Q1988.02 1482.32 1990.5 1482.32 Q1994.5 1482.32 1996.84 1480.21 Q1999.18 1478.1 1999.18 1474.49 Q1999.18 1470.88 1996.84 1468.77 Q1994.5 1466.67 1990.5 1466.67 Q1988.62 1466.67 1986.75 1467.08 Q1984.89 1467.5 1982.95 1468.38 L1982.95 1451.02 Z" fill="#000000" fill-rule="nonzero" fill-opacity="1"></path><path clip-path="url(#clip370)" d="M2013.06 1479.7 L2017.95 1479.7 L2017.95 1485.58 L2013.06 1485.58 L2013.06 1479.7 Z" fill="#000000" fill-rule="nonzero" fill-opacity="1"></path><path clip-path="url(#clip370)" d="M2038.13 1454.1 Q2034.52 1454.1 2032.69 1457.66 Q2030.89 1461.2 2030.89 1468.33 Q2030.89 1475.44 2032.69 1479.01 Q2034.52 1482.55 2038.13 1482.55 Q2041.77 1482.55 2043.57 1479.01 Q2045.4 1475.44 2045.4 1468.33 Q2045.4 1461.2 2043.57 1457.66 Q2041.77 1454.1 2038.13 1454.1 M2038.13 1450.39 Q2043.94 1450.39 2047 1455 Q2050.08 1459.58 2050.08 1468.33 Q2050.08 1477.06 2047 1481.67 Q2043.94 1486.25 2038.13 1486.25 Q2032.32 1486.25 2029.25 1481.67 Q2026.19 1477.06 2026.19 1468.33 Q2026.19 1459.58 2029.25 1455 Q2032.32 1450.39 2038.13 1450.39 Z" fill="#000000" fill-rule="nonzero" fill-opacity="1"></path><path clip-path="url(#clip370)" d="M1105.8 1525.81 L1105.8 1543.66 L1113.89 1543.66 Q1118.38 1543.66 1120.83 1541.34 Q1123.28 1539.02 1123.28 1534.72 Q1123.28 1530.45 1120.83 1528.13 Q1118.38 1525.81 1113.89 1525.81 L1105.8 1525.81 M1099.37 1520.52 L1113.89 1520.52 Q1121.88 1520.52 1125.95 1524.15 Q1130.06 1527.75 1130.06 1534.72 Q1130.06 1541.75 1125.95 1545.35 Q1121.88 1548.95 1113.89 1548.95 L1105.8 1548.95 L1105.8 1568.04 L1099.37 1568.04 L1099.37 1520.52 Z" fill="#000000" fill-rule="nonzero" fill-opacity="1"></path><path clip-path="url(#clip370)" d="M1149.92 1536.5 Q1145.21 1536.5 1142.47 1540.19 Q1139.73 1543.85 1139.73 1550.25 Q1139.73 1556.65 1142.44 1560.34 Q1145.17 1564 1149.92 1564 Q1154.6 1564 1157.33 1560.31 Q1160.07 1556.62 1160.07 1550.25 Q1160.07 1543.92 1157.33 1540.23 Q1154.6 1536.5 1149.92 1536.5 M1149.92 1531.54 Q1157.56 1531.54 1161.92 1536.5 Q1166.28 1541.47 1166.28 1550.25 Q1166.28 1559 1161.92 1564 Q1157.56 1568.97 1149.92 1568.97 Q1142.25 1568.97 1137.89 1564 Q1133.56 1559 1133.56 1550.25 Q1133.56 1541.47 1137.89 1536.5 Q1142.25 1531.54 1149.92 1531.54 Z" fill="#000000" fill-rule="nonzero" fill-opacity="1"></path><path clip-path="url(#clip370)" d="M1198.71 1533.45 L1198.71 1538.98 Q1196.23 1537.71 1193.55 1537.07 Q1190.88 1536.44 1188.02 1536.44 Q1183.66 1536.44 1181.46 1537.77 Q1179.29 1539.11 1179.29 1541.79 Q1179.29 1543.82 1180.85 1545 Q1182.41 1546.15 1187.12 1547.2 L1189.13 1547.64 Q1195.37 1548.98 1197.98 1551.43 Q1200.62 1553.85 1200.62 1558.21 Q1200.62 1563.17 1196.67 1566.07 Q1192.76 1568.97 1185.88 1568.97 Q1183.02 1568.97 1179.9 1568.39 Q1176.81 1567.85 1173.37 1566.74 L1173.37 1560.69 Q1176.62 1562.38 1179.77 1563.24 Q1182.92 1564.07 1186.01 1564.07 Q1190.15 1564.07 1192.38 1562.66 Q1194.6 1561.23 1194.6 1558.65 Q1194.6 1556.27 1192.98 1554.99 Q1191.39 1553.72 1185.95 1552.54 L1183.91 1552.07 Q1178.47 1550.92 1176.05 1548.56 Q1173.63 1546.18 1173.63 1542.04 Q1173.63 1537.01 1177.19 1534.27 Q1180.76 1531.54 1187.32 1531.54 Q1190.56 1531.54 1193.43 1532.01 Q1196.29 1532.49 1198.71 1533.45 Z" fill="#000000" fill-rule="nonzero" fill-opacity="1"></path><path clip-path="url(#clip370)" d="M1209.95 1532.4 L1215.8 1532.4 L1215.8 1568.04 L1209.95 1568.04 L1209.95 1532.4 M1209.95 1518.52 L1215.8 1518.52 L1215.8 1525.93 L1209.95 1525.93 L1209.95 1518.52 Z" fill="#000000" fill-rule="nonzero" fill-opacity="1"></path><path clip-path="url(#clip370)" d="M1233.85 1522.27 L1233.85 1532.4 L1245.91 1532.4 L1245.91 1536.95 L1233.85 1536.95 L1233.85 1556.3 Q1233.85 1560.66 1235.03 1561.9 Q1236.24 1563.14 1239.9 1563.14 L1245.91 1563.14 L1245.91 1568.04 L1239.9 1568.04 Q1233.12 1568.04 1230.54 1565.53 Q1227.96 1562.98 1227.96 1556.3 L1227.96 1536.95 L1223.66 1536.95 L1223.66 1532.4 L1227.96 1532.4 L1227.96 1522.27 L1233.85 1522.27 Z" fill="#000000" fill-rule="nonzero" fill-opacity="1"></path><path clip-path="url(#clip370)" d="M1253.61 1532.4 L1259.47 1532.4 L1259.47 1568.04 L1253.61 1568.04 L1253.61 1532.4 M1253.61 1518.52 L1259.47 1518.52 L1259.47 1525.93 L1253.61 1525.93 L1253.61 1518.52 Z" fill="#000000" fill-rule="nonzero" fill-opacity="1"></path><path clip-path="url(#clip370)" d="M1285.54 1536.5 Q1280.83 1536.5 1278.09 1540.19 Q1275.35 1543.85 1275.35 1550.25 Q1275.35 1556.65 1278.06 1560.34 Q1280.8 1564 1285.54 1564 Q1290.22 1564 1292.95 1560.31 Q1295.69 1556.62 1295.69 1550.25 Q1295.69 1543.92 1292.95 1540.23 Q1290.22 1536.5 1285.54 1536.5 M1285.54 1531.54 Q1293.18 1531.54 1297.54 1536.5 Q1301.9 1541.47 1301.9 1550.25 Q1301.9 1559 1297.54 1564 Q1293.18 1568.97 1285.54 1568.97 Q1277.87 1568.97 1273.51 1564 Q1269.18 1559 1269.18 1550.25 Q1269.18 1541.47 1273.51 1536.5 Q1277.87 1531.54 1285.54 1531.54 Z" fill="#000000" fill-rule="nonzero" fill-opacity="1"></path><path clip-path="url(#clip370)" d="M1341.24 1546.53 L1341.24 1568.04 L1335.38 1568.04 L1335.38 1546.72 Q1335.38 1541.66 1333.41 1539.14 Q1331.44 1536.63 1327.49 1536.63 Q1322.75 1536.63 1320.01 1539.65 Q1317.27 1542.68 1317.27 1547.9 L1317.27 1568.04 L1311.38 1568.04 L1311.38 1532.4 L1317.27 1532.4 L1317.27 1537.93 Q1319.37 1534.72 1322.2 1533.13 Q1325.07 1531.54 1328.79 1531.54 Q1334.94 1531.54 1338.09 1535.36 Q1341.24 1539.14 1341.24 1546.53 Z" fill="#000000" fill-rule="nonzero" fill-opacity="1"></path><path clip-path="url(#clip370)" d="M1387.71 1518.58 Q1383.44 1525.9 1381.37 1533.06 Q1379.31 1540.23 1379.31 1547.58 Q1379.31 1554.93 1381.37 1562.16 Q1383.47 1569.35 1387.71 1576.64 L1382.62 1576.64 Q1377.84 1569.16 1375.45 1561.93 Q1373.1 1554.71 1373.1 1547.58 Q1373.1 1540.48 1375.45 1533.29 Q1377.81 1526.09 1382.62 1518.58 L1387.71 1518.58 Z" fill="#000000" fill-rule="nonzero" fill-opacity="1"></path><path clip-path="url(#clip370)" d="M1426.83 1539.24 Q1429.02 1535.29 1432.08 1533.41 Q1435.13 1531.54 1439.27 1531.54 Q1444.84 1531.54 1447.86 1535.45 Q1450.89 1539.33 1450.89 1546.53 L1450.89 1568.04 L1445 1568.04 L1445 1546.72 Q1445 1541.59 1443.19 1539.11 Q1441.37 1536.63 1437.65 1536.63 Q1433.1 1536.63 1430.45 1539.65 Q1427.81 1542.68 1427.81 1547.9 L1427.81 1568.04 L1421.92 1568.04 L1421.92 1546.72 Q1421.92 1541.56 1420.11 1539.11 Q1418.3 1536.63 1414.51 1536.63 Q1410.02 1536.63 1407.38 1539.68 Q1404.74 1542.71 1404.74 1547.9 L1404.74 1568.04 L1398.85 1568.04 L1398.85 1532.4 L1404.74 1532.4 L1404.74 1537.93 Q1406.74 1534.66 1409.54 1533.1 Q1412.34 1531.54 1416.19 1531.54 Q1420.08 1531.54 1422.78 1533.51 Q1425.52 1535.48 1426.83 1539.24 Z" fill="#000000" fill-rule="nonzero" fill-opacity="1"></path><path clip-path="url(#clip370)" d="M1490.32 1539.24 Q1492.52 1535.29 1495.58 1533.41 Q1498.63 1531.54 1502.77 1531.54 Q1508.34 1531.54 1511.36 1535.45 Q1514.39 1539.33 1514.39 1546.53 L1514.39 1568.04 L1508.5 1568.04 L1508.5 1546.72 Q1508.5 1541.59 1506.68 1539.11 Q1504.87 1536.63 1501.15 1536.63 Q1496.59 1536.63 1493.95 1539.65 Q1491.31 1542.68 1491.31 1547.9 L1491.31 1568.04 L1485.42 1568.04 L1485.42 1546.72 Q1485.42 1541.56 1483.61 1539.11 Q1481.79 1536.63 1478.01 1536.63 Q1473.52 1536.63 1470.88 1539.68 Q1468.23 1542.71 1468.23 1547.9 L1468.23 1568.04 L1462.35 1568.04 L1462.35 1532.4 L1468.23 1532.4 L1468.23 1537.93 Q1470.24 1534.66 1473.04 1533.1 Q1475.84 1531.54 1479.69 1531.54 Q1483.58 1531.54 1486.28 1533.51 Q1489.02 1535.48 1490.32 1539.24 Z" fill="#000000" fill-rule="nonzero" fill-opacity="1"></path><path clip-path="url(#clip370)" d="M1525.14 1518.58 L1530.24 1518.58 Q1535.01 1526.09 1537.37 1533.29 Q1539.75 1540.48 1539.75 1547.58 Q1539.75 1554.71 1537.37 1561.93 Q1535.01 1569.16 1530.24 1576.64 L1525.14 1576.64 Q1529.38 1569.35 1531.45 1562.16 Q1533.55 1554.93 1533.55 1547.58 Q1533.55 1540.23 1531.45 1533.06 Q1529.38 1525.9 1525.14 1518.58 Z" fill="#000000" fill-rule="nonzero" fill-opacity="1"></path><polyline clip-path="url(#clip370)" style="stroke:#000000; stroke-linecap:round; stroke-linejoin:round; stroke-width:4; stroke-opacity:1; fill:none" points="286.371,1423.18 286.371,123.472 "></polyline>
<polyline clip-path="url(#clip370)" style="stroke:#000000; stroke-linecap:round; stroke-linejoin:round; stroke-width:4; stroke-opacity:1; fill:none" points="286.371,1264.1 305.268,1264.1 "></polyline>
<polyline clip-path="url(#clip370)" style="stroke:#000000; stroke-linecap:round; stroke-linejoin:round; stroke-width:4; stroke-opacity:1; fill:none" points="286.371,1042.48 305.268,1042.48 "></polyline>
<polyline clip-path="url(#clip370)" style="stroke:#000000; stroke-linecap:round; stroke-linejoin:round; stroke-width:4; stroke-opacity:1; fill:none" points="286.371,820.85 305.268,820.85 "></polyline>
<polyline clip-path="url(#clip370)" style="stroke:#000000; stroke-linecap:round; stroke-linejoin:round; stroke-width:4; stroke-opacity:1; fill:none" points="286.371,599.222 305.268,599.222 "></polyline>
<polyline clip-path="url(#clip370)" style="stroke:#000000; stroke-linecap:round; stroke-linejoin:round; stroke-width:4; stroke-opacity:1; fill:none" points="286.371,377.595 305.268,377.595 "></polyline>
<polyline clip-path="url(#clip370)" style="stroke:#000000; stroke-linecap:round; stroke-linejoin:round; stroke-width:4; stroke-opacity:1; fill:none" points="286.371,155.967 305.268,155.967 "></polyline>
<path clip-path="url(#clip370)" d="M114.26 1264.56 L143.936 1264.56 L143.936 1268.49 L114.26 1268.49 L114.26 1264.56 Z" fill="#000000" fill-rule="nonzero" fill-opacity="1"></path><path clip-path="url(#clip370)" d="M164.028 1249.9 Q160.417 1249.9 158.589 1253.47 Q156.783 1257.01 156.783 1264.14 Q156.783 1271.25 158.589 1274.81 Q160.417 1278.35 164.028 1278.35 Q167.663 1278.35 169.468 1274.81 Q171.297 1271.25 171.297 1264.14 Q171.297 1257.01 169.468 1253.47 Q167.663 1249.9 164.028 1249.9 M164.028 1246.2 Q169.839 1246.2 172.894 1250.81 Q175.973 1255.39 175.973 1264.14 Q175.973 1272.87 172.894 1277.47 Q169.839 1282.06 164.028 1282.06 Q158.218 1282.06 155.14 1277.47 Q152.084 1272.87 152.084 1264.14 Q152.084 1255.39 155.14 1250.81 Q158.218 1246.2 164.028 1246.2 Z" fill="#000000" fill-rule="nonzero" fill-opacity="1"></path><path clip-path="url(#clip370)" d="M184.19 1275.51 L189.075 1275.51 L189.075 1281.38 L184.19 1281.38 L184.19 1275.51 Z" fill="#000000" fill-rule="nonzero" fill-opacity="1"></path><path clip-path="url(#clip370)" d="M203.287 1277.45 L219.607 1277.45 L219.607 1281.38 L197.662 1281.38 L197.662 1277.45 Q200.325 1274.7 204.908 1270.07 Q209.514 1265.41 210.695 1264.07 Q212.94 1261.55 213.82 1259.81 Q214.723 1258.05 214.723 1256.36 Q214.723 1253.61 212.778 1251.87 Q210.857 1250.14 207.755 1250.14 Q205.556 1250.14 203.102 1250.9 Q200.672 1251.66 197.894 1253.21 L197.894 1248.49 Q200.718 1247.36 203.172 1246.78 Q205.625 1246.2 207.662 1246.2 Q213.033 1246.2 216.227 1248.89 Q219.422 1251.57 219.422 1256.06 Q219.422 1258.19 218.611 1260.11 Q217.824 1262.01 215.718 1264.6 Q215.139 1265.27 212.037 1268.49 Q208.936 1271.69 203.287 1277.45 Z" fill="#000000" fill-rule="nonzero" fill-opacity="1"></path><path clip-path="url(#clip370)" d="M229.468 1246.82 L247.824 1246.82 L247.824 1250.76 L233.75 1250.76 L233.75 1259.23 Q234.769 1258.89 235.787 1258.72 Q236.806 1258.54 237.824 1258.54 Q243.611 1258.54 246.991 1261.71 Q250.371 1264.88 250.371 1270.3 Q250.371 1275.88 246.898 1278.98 Q243.426 1282.06 237.107 1282.06 Q234.931 1282.06 232.662 1281.69 Q230.417 1281.32 228.01 1280.57 L228.01 1275.88 Q230.093 1277.01 232.315 1277.57 Q234.537 1278.12 237.014 1278.12 Q241.019 1278.12 243.357 1276.01 Q245.695 1273.91 245.695 1270.3 Q245.695 1266.69 243.357 1264.58 Q241.019 1262.47 237.014 1262.47 Q235.139 1262.47 233.264 1262.89 Q231.412 1263.31 229.468 1264.19 L229.468 1246.82 Z" fill="#000000" fill-rule="nonzero" fill-opacity="1"></path><path clip-path="url(#clip370)" d="M163.033 1028.28 Q159.422 1028.28 157.593 1031.84 Q155.788 1035.38 155.788 1042.51 Q155.788 1049.62 157.593 1053.18 Q159.422 1056.73 163.033 1056.73 Q166.667 1056.73 168.473 1053.18 Q170.302 1049.62 170.302 1042.51 Q170.302 1035.38 168.473 1031.84 Q166.667 1028.28 163.033 1028.28 M163.033 1024.57 Q168.843 1024.57 171.899 1029.18 Q174.977 1033.76 174.977 1042.51 Q174.977 1051.24 171.899 1055.85 Q168.843 1060.43 163.033 1060.43 Q157.223 1060.43 154.144 1055.85 Q151.089 1051.24 151.089 1042.51 Q151.089 1033.76 154.144 1029.18 Q157.223 1024.57 163.033 1024.57 Z" fill="#000000" fill-rule="nonzero" fill-opacity="1"></path><path clip-path="url(#clip370)" d="M183.195 1053.88 L188.079 1053.88 L188.079 1059.76 L183.195 1059.76 L183.195 1053.88 Z" fill="#000000" fill-rule="nonzero" fill-opacity="1"></path><path clip-path="url(#clip370)" d="M208.264 1028.28 Q204.653 1028.28 202.824 1031.84 Q201.019 1035.38 201.019 1042.51 Q201.019 1049.62 202.824 1053.18 Q204.653 1056.73 208.264 1056.73 Q211.899 1056.73 213.704 1053.18 Q215.533 1049.62 215.533 1042.51 Q215.533 1035.38 213.704 1031.84 Q211.899 1028.28 208.264 1028.28 M208.264 1024.57 Q214.074 1024.57 217.13 1029.18 Q220.209 1033.76 220.209 1042.51 Q220.209 1051.24 217.13 1055.85 Q214.074 1060.43 208.264 1060.43 Q202.454 1060.43 199.375 1055.85 Q196.32 1051.24 196.32 1042.51 Q196.32 1033.76 199.375 1029.18 Q202.454 1024.57 208.264 1024.57 Z" fill="#000000" fill-rule="nonzero" fill-opacity="1"></path><path clip-path="url(#clip370)" d="M238.426 1028.28 Q234.815 1028.28 232.986 1031.84 Q231.181 1035.38 231.181 1042.51 Q231.181 1049.62 232.986 1053.18 Q234.815 1056.73 238.426 1056.73 Q242.06 1056.73 243.866 1053.18 Q245.695 1049.62 245.695 1042.51 Q245.695 1035.38 243.866 1031.84 Q242.06 1028.28 238.426 1028.28 M238.426 1024.57 Q244.236 1024.57 247.292 1029.18 Q250.371 1033.76 250.371 1042.51 Q250.371 1051.24 247.292 1055.85 Q244.236 1060.43 238.426 1060.43 Q232.616 1060.43 229.537 1055.85 Q226.482 1051.24 226.482 1042.51 Q226.482 1033.76 229.537 1029.18 Q232.616 1024.57 238.426 1024.57 Z" fill="#000000" fill-rule="nonzero" fill-opacity="1"></path><path clip-path="url(#clip370)" d="M164.028 806.649 Q160.417 806.649 158.589 810.213 Q156.783 813.755 156.783 820.885 Q156.783 827.991 158.589 831.556 Q160.417 835.097 164.028 835.097 Q167.663 835.097 169.468 831.556 Q171.297 827.991 171.297 820.885 Q171.297 813.755 169.468 810.213 Q167.663 806.649 164.028 806.649 M164.028 802.945 Q169.839 802.945 172.894 807.551 Q175.973 812.135 175.973 820.885 Q175.973 829.611 172.894 834.218 Q169.839 838.801 164.028 838.801 Q158.218 838.801 155.14 834.218 Q152.084 829.611 152.084 820.885 Q152.084 812.135 155.14 807.551 Q158.218 802.945 164.028 802.945 Z" fill="#000000" fill-rule="nonzero" fill-opacity="1"></path><path clip-path="url(#clip370)" d="M184.19 832.25 L189.075 832.25 L189.075 838.13 L184.19 838.13 L184.19 832.25 Z" fill="#000000" fill-rule="nonzero" fill-opacity="1"></path><path clip-path="url(#clip370)" d="M203.287 834.195 L219.607 834.195 L219.607 838.13 L197.662 838.13 L197.662 834.195 Q200.325 831.44 204.908 826.81 Q209.514 822.158 210.695 820.815 Q212.94 818.292 213.82 816.556 Q214.723 814.797 214.723 813.107 Q214.723 810.352 212.778 808.616 Q210.857 806.88 207.755 806.88 Q205.556 806.88 203.102 807.644 Q200.672 808.408 197.894 809.959 L197.894 805.236 Q200.718 804.102 203.172 803.524 Q205.625 802.945 207.662 802.945 Q213.033 802.945 216.227 805.63 Q219.422 808.315 219.422 812.806 Q219.422 814.935 218.611 816.857 Q217.824 818.755 215.718 821.348 Q215.139 822.019 212.037 825.236 Q208.936 828.431 203.287 834.195 Z" fill="#000000" fill-rule="nonzero" fill-opacity="1"></path><path clip-path="url(#clip370)" d="M229.468 803.57 L247.824 803.57 L247.824 807.505 L233.75 807.505 L233.75 815.977 Q234.769 815.63 235.787 815.468 Q236.806 815.283 237.824 815.283 Q243.611 815.283 246.991 818.454 Q250.371 821.625 250.371 827.042 Q250.371 832.621 246.898 835.722 Q243.426 838.801 237.107 838.801 Q234.931 838.801 232.662 838.431 Q230.417 838.06 228.01 837.32 L228.01 832.621 Q230.093 833.755 232.315 834.31 Q234.537 834.866 237.014 834.866 Q241.019 834.866 243.357 832.759 Q245.695 830.653 245.695 827.042 Q245.695 823.431 243.357 821.324 Q241.019 819.218 237.014 819.218 Q235.139 819.218 233.264 819.635 Q231.412 820.051 229.468 820.931 L229.468 803.57 Z" fill="#000000" fill-rule="nonzero" fill-opacity="1"></path><path clip-path="url(#clip370)" d="M163.033 585.021 Q159.422 585.021 157.593 588.586 Q155.788 592.127 155.788 599.257 Q155.788 606.363 157.593 609.928 Q159.422 613.47 163.033 613.47 Q166.667 613.47 168.473 609.928 Q170.302 606.363 170.302 599.257 Q170.302 592.127 168.473 588.586 Q166.667 585.021 163.033 585.021 M163.033 581.317 Q168.843 581.317 171.899 585.924 Q174.977 590.507 174.977 599.257 Q174.977 607.984 171.899 612.59 Q168.843 617.174 163.033 617.174 Q157.223 617.174 154.144 612.59 Q151.089 607.984 151.089 599.257 Q151.089 590.507 154.144 585.924 Q157.223 581.317 163.033 581.317 Z" fill="#000000" fill-rule="nonzero" fill-opacity="1"></path><path clip-path="url(#clip370)" d="M183.195 610.623 L188.079 610.623 L188.079 616.502 L183.195 616.502 L183.195 610.623 Z" fill="#000000" fill-rule="nonzero" fill-opacity="1"></path><path clip-path="url(#clip370)" d="M198.311 581.942 L216.667 581.942 L216.667 585.877 L202.593 585.877 L202.593 594.35 Q203.612 594.002 204.63 593.84 Q205.649 593.655 206.667 593.655 Q212.454 593.655 215.834 596.826 Q219.213 599.998 219.213 605.414 Q219.213 610.993 215.741 614.095 Q212.269 617.174 205.949 617.174 Q203.774 617.174 201.505 616.803 Q199.26 616.433 196.852 615.692 L196.852 610.993 Q198.936 612.127 201.158 612.683 Q203.38 613.238 205.857 613.238 Q209.861 613.238 212.199 611.132 Q214.537 609.025 214.537 605.414 Q214.537 601.803 212.199 599.697 Q209.861 597.59 205.857 597.59 Q203.982 597.59 202.107 598.007 Q200.255 598.424 198.311 599.303 L198.311 581.942 Z" fill="#000000" fill-rule="nonzero" fill-opacity="1"></path><path clip-path="url(#clip370)" d="M238.426 585.021 Q234.815 585.021 232.986 588.586 Q231.181 592.127 231.181 599.257 Q231.181 606.363 232.986 609.928 Q234.815 613.47 238.426 613.47 Q242.06 613.47 243.866 609.928 Q245.695 606.363 245.695 599.257 Q245.695 592.127 243.866 588.586 Q242.06 585.021 238.426 585.021 M238.426 581.317 Q244.236 581.317 247.292 585.924 Q250.371 590.507 250.371 599.257 Q250.371 607.984 247.292 612.59 Q244.236 617.174 238.426 617.174 Q232.616 617.174 229.537 612.59 Q226.482 607.984 226.482 599.257 Q226.482 590.507 229.537 585.924 Q232.616 581.317 238.426 581.317 Z" fill="#000000" fill-rule="nonzero" fill-opacity="1"></path><path clip-path="url(#clip370)" d="M164.028 363.393 Q160.417 363.393 158.589 366.958 Q156.783 370.5 156.783 377.629 Q156.783 384.736 158.589 388.301 Q160.417 391.842 164.028 391.842 Q167.663 391.842 169.468 388.301 Q171.297 384.736 171.297 377.629 Q171.297 370.5 169.468 366.958 Q167.663 363.393 164.028 363.393 M164.028 359.69 Q169.839 359.69 172.894 364.296 Q175.973 368.879 175.973 377.629 Q175.973 386.356 172.894 390.963 Q169.839 395.546 164.028 395.546 Q158.218 395.546 155.14 390.963 Q152.084 386.356 152.084 377.629 Q152.084 368.879 155.14 364.296 Q158.218 359.69 164.028 359.69 Z" fill="#000000" fill-rule="nonzero" fill-opacity="1"></path><path clip-path="url(#clip370)" d="M184.19 388.995 L189.075 388.995 L189.075 394.875 L184.19 394.875 L184.19 388.995 Z" fill="#000000" fill-rule="nonzero" fill-opacity="1"></path><path clip-path="url(#clip370)" d="M198.079 360.315 L220.301 360.315 L220.301 362.305 L207.755 394.875 L202.871 394.875 L214.676 364.25 L198.079 364.25 L198.079 360.315 Z" fill="#000000" fill-rule="nonzero" fill-opacity="1"></path><path clip-path="url(#clip370)" d="M229.468 360.315 L247.824 360.315 L247.824 364.25 L233.75 364.25 L233.75 372.722 Q234.769 372.375 235.787 372.213 Q236.806 372.028 237.824 372.028 Q243.611 372.028 246.991 375.199 Q250.371 378.37 250.371 383.787 Q250.371 389.365 246.898 392.467 Q243.426 395.546 237.107 395.546 Q234.931 395.546 232.662 395.176 Q230.417 394.805 228.01 394.064 L228.01 389.365 Q230.093 390.5 232.315 391.055 Q234.537 391.611 237.014 391.611 Q241.019 391.611 243.357 389.504 Q245.695 387.398 245.695 383.787 Q245.695 380.176 243.357 378.069 Q241.019 375.963 237.014 375.963 Q235.139 375.963 233.264 376.379 Q231.412 376.796 229.468 377.676 L229.468 360.315 Z" fill="#000000" fill-rule="nonzero" fill-opacity="1"></path><path clip-path="url(#clip370)" d="M153.843 169.312 L161.482 169.312 L161.482 142.946 L153.172 144.613 L153.172 140.354 L161.436 138.687 L166.112 138.687 L166.112 169.312 L173.751 169.312 L173.751 173.247 L153.843 173.247 L153.843 169.312 Z" fill="#000000" fill-rule="nonzero" fill-opacity="1"></path><path clip-path="url(#clip370)" d="M183.195 167.367 L188.079 167.367 L188.079 173.247 L183.195 173.247 L183.195 167.367 Z" fill="#000000" fill-rule="nonzero" fill-opacity="1"></path><path clip-path="url(#clip370)" d="M208.264 141.766 Q204.653 141.766 202.824 145.331 Q201.019 148.872 201.019 156.002 Q201.019 163.108 202.824 166.673 Q204.653 170.215 208.264 170.215 Q211.899 170.215 213.704 166.673 Q215.533 163.108 215.533 156.002 Q215.533 148.872 213.704 145.331 Q211.899 141.766 208.264 141.766 M208.264 138.062 Q214.074 138.062 217.13 142.669 Q220.209 147.252 220.209 156.002 Q220.209 164.729 217.13 169.335 Q214.074 173.918 208.264 173.918 Q202.454 173.918 199.375 169.335 Q196.32 164.729 196.32 156.002 Q196.32 147.252 199.375 142.669 Q202.454 138.062 208.264 138.062 Z" fill="#000000" fill-rule="nonzero" fill-opacity="1"></path><path clip-path="url(#clip370)" d="M238.426 141.766 Q234.815 141.766 232.986 145.331 Q231.181 148.872 231.181 156.002 Q231.181 163.108 232.986 166.673 Q234.815 170.215 238.426 170.215 Q242.06 170.215 243.866 166.673 Q245.695 163.108 245.695 156.002 Q245.695 148.872 243.866 145.331 Q242.06 141.766 238.426 141.766 M238.426 138.062 Q244.236 138.062 247.292 142.669 Q250.371 147.252 250.371 156.002 Q250.371 164.729 247.292 169.335 Q244.236 173.918 238.426 173.918 Q232.616 173.918 229.537 169.335 Q226.482 164.729 226.482 156.002 Q226.482 147.252 229.537 142.669 Q232.616 138.062 238.426 138.062 Z" fill="#000000" fill-rule="nonzero" fill-opacity="1"></path><path clip-path="url(#clip370)" d="M14.1925 848.298 L79.3773 848.298 L79.3773 853.709 L14.1925 853.709 L14.1925 848.298 Z" fill="#000000" fill-rule="nonzero" fill-opacity="1"></path><path clip-path="url(#clip370)" d="M16.4842 833.625 L16.4842 824.045 L48.8219 811.918 L16.4842 799.728 L16.4842 790.147 L64.0042 790.147 L64.0042 796.418 L22.277 796.418 L54.8694 808.672 L54.8694 815.133 L22.277 827.387 L64.0042 827.387 L64.0042 833.625 L16.4842 833.625 Z" fill="#000000" fill-rule="nonzero" fill-opacity="1"></path><path clip-path="url(#clip370)" d="M28.3562 748.006 L45.7028 760.897 L64.0042 747.338 L64.0042 754.245 L49.9996 764.621 L64.0042 774.997 L64.0042 781.904 L45.3526 768.058 L28.3562 780.726 L28.3562 773.819 L41.0558 764.366 L28.3562 754.913 L28.3562 748.006 Z" fill="#000000" fill-rule="nonzero" fill-opacity="1"></path><path clip-path="url(#clip370)" d="M67.3143 724.23 Q73.68 726.713 75.6216 729.068 Q77.5631 731.424 77.5631 735.37 L77.5631 740.049 L72.6615 740.049 L72.6615 736.612 Q72.6615 734.193 71.5157 732.856 Q70.3699 731.519 66.1048 729.896 L63.4312 728.846 L28.3562 743.264 L28.3562 737.057 L56.238 725.917 L28.3562 714.777 L28.3562 708.571 L67.3143 724.23 Z" fill="#000000" fill-rule="nonzero" fill-opacity="1"></path><path clip-path="url(#clip370)" d="M14.1925 692.943 L79.3773 692.943 L79.3773 698.354 L14.1925 698.354 L14.1925 692.943 Z" fill="#000000" fill-rule="nonzero" fill-opacity="1"></path><path clip-path="url(#clip370)" d="M820.877 17.6457 Q811.965 17.6457 806.698 24.2892 Q801.473 30.9327 801.473 42.3968 Q801.473 53.8203 806.698 60.4638 Q811.965 67.1073 820.877 67.1073 Q829.789 67.1073 834.974 60.4638 Q840.199 53.8203 840.199 42.3968 Q840.199 30.9327 834.974 24.2892 Q829.789 17.6457 820.877 17.6457 M820.877 11.0023 Q833.596 11.0023 841.212 19.5497 Q848.828 28.0566 848.828 42.3968 Q848.828 56.6965 841.212 65.2439 Q833.596 73.7508 820.877 73.7508 Q808.116 73.7508 800.46 65.2439 Q792.844 56.737 792.844 42.3968 Q792.844 28.0566 800.46 19.5497 Q808.116 11.0023 820.877 11.0023 Z" fill="#000000" fill-rule="nonzero" fill-opacity="1"></path><path clip-path="url(#clip370)" d="M868.515 65.7705 L868.515 89.8329 L861.021 89.8329 L861.021 27.2059 L868.515 27.2059 L868.515 34.0924 Q870.865 30.0415 874.43 28.0971 Q878.035 26.1121 883.018 26.1121 Q891.281 26.1121 896.426 32.6746 Q901.611 39.2371 901.611 49.9314 Q901.611 60.6258 896.426 67.1883 Q891.281 73.7508 883.018 73.7508 Q878.035 73.7508 874.43 71.8063 Q870.865 69.8214 868.515 65.7705 M893.874 49.9314 Q893.874 41.7081 890.471 37.0496 Q887.109 32.3505 881.195 32.3505 Q875.28 32.3505 871.878 37.0496 Q868.515 41.7081 868.515 49.9314 Q868.515 58.1548 871.878 62.8538 Q875.28 67.5124 881.195 67.5124 Q887.109 67.5124 890.471 62.8538 Q893.874 58.1548 893.874 49.9314 Z" fill="#000000" fill-rule="nonzero" fill-opacity="1"></path><path clip-path="url(#clip370)" d="M921.339 14.324 L921.339 27.2059 L936.692 27.2059 L936.692 32.9987 L921.339 32.9987 L921.339 57.6282 Q921.339 63.1779 922.838 64.7578 Q924.377 66.3376 929.036 66.3376 L936.692 66.3376 L936.692 72.576 L929.036 72.576 Q920.407 72.576 917.126 69.3758 Q913.845 66.1351 913.845 57.6282 L913.845 32.9987 L908.376 32.9987 L908.376 27.2059 L913.845 27.2059 L913.845 14.324 L921.339 14.324 Z" fill="#000000" fill-rule="nonzero" fill-opacity="1"></path><path clip-path="url(#clip370)" d="M946.495 27.2059 L953.949 27.2059 L953.949 72.576 L946.495 72.576 L946.495 27.2059 M946.495 9.54393 L953.949 9.54393 L953.949 18.9825 L946.495 18.9825 L946.495 9.54393 Z" fill="#000000" fill-rule="nonzero" fill-opacity="1"></path><path clip-path="url(#clip370)" d="M1004.87 35.9153 Q1007.66 30.8922 1011.55 28.5022 Q1015.44 26.1121 1020.71 26.1121 Q1027.8 26.1121 1031.65 31.0947 Q1035.49 36.0368 1035.49 45.1919 L1035.49 72.576 L1028 72.576 L1028 45.4349 Q1028 38.913 1025.69 35.7533 Q1023.38 32.5936 1018.64 32.5936 Q1012.85 32.5936 1009.49 36.4419 Q1006.12 40.2903 1006.12 46.9338 L1006.12 72.576 L998.63 72.576 L998.63 45.4349 Q998.63 38.8725 996.321 35.7533 Q994.012 32.5936 989.192 32.5936 Q983.48 32.5936 980.118 36.4824 Q976.755 40.3308 976.755 46.9338 L976.755 72.576 L969.261 72.576 L969.261 27.2059 L976.755 27.2059 L976.755 34.2544 Q979.308 30.082 982.872 28.0971 Q986.437 26.1121 991.339 26.1121 Q996.281 26.1121 999.724 28.6237 Q1003.21 31.1352 1004.87 35.9153 Z" fill="#000000" fill-rule="nonzero" fill-opacity="1"></path><path clip-path="url(#clip370)" d="M1050.36 27.2059 L1057.81 27.2059 L1057.81 72.576 L1050.36 72.576 L1050.36 27.2059 M1050.36 9.54393 L1057.81 9.54393 L1057.81 18.9825 L1050.36 18.9825 L1050.36 9.54393 Z" fill="#000000" fill-rule="nonzero" fill-opacity="1"></path><path clip-path="url(#clip370)" d="M1070.17 27.2059 L1105.57 27.2059 L1105.57 34.0114 L1077.54 66.6212 L1105.57 66.6212 L1105.57 72.576 L1069.16 72.576 L1069.16 65.7705 L1097.19 33.1607 L1070.17 33.1607 L1070.17 27.2059 Z" fill="#000000" fill-rule="nonzero" fill-opacity="1"></path><path clip-path="url(#clip370)" d="M1155.76 48.0275 L1155.76 51.6733 L1121.49 51.6733 Q1121.98 59.3701 1126.11 63.421 Q1130.28 67.4314 1137.7 67.4314 Q1141.99 67.4314 1146 66.3781 Q1150.05 65.3249 1154.02 63.2184 L1154.02 70.267 Q1150.01 71.9684 1145.8 72.8596 Q1141.59 73.7508 1137.25 73.7508 Q1126.4 73.7508 1120.04 67.4314 Q1113.72 61.1119 1113.72 50.3365 Q1113.72 39.1965 1119.71 32.6746 Q1125.75 26.1121 1135.96 26.1121 Q1145.11 26.1121 1150.42 32.0264 Q1155.76 37.9003 1155.76 48.0275 M1148.31 45.84 Q1148.23 39.7232 1144.87 36.0774 Q1141.55 32.4315 1136.04 32.4315 Q1129.8 32.4315 1126.03 35.9558 Q1122.3 39.4801 1121.74 45.8805 L1148.31 45.84 Z" fill="#000000" fill-rule="nonzero" fill-opacity="1"></path><path clip-path="url(#clip370)" d="M1197.85 34.0924 L1197.85 9.54393 L1205.31 9.54393 L1205.31 72.576 L1197.85 72.576 L1197.85 65.7705 Q1195.5 69.8214 1191.9 71.8063 Q1188.33 73.7508 1183.31 73.7508 Q1175.09 73.7508 1169.9 67.1883 Q1164.76 60.6258 1164.76 49.9314 Q1164.76 39.2371 1169.9 32.6746 Q1175.09 26.1121 1183.31 26.1121 Q1188.33 26.1121 1191.9 28.0971 Q1195.5 30.0415 1197.85 34.0924 M1172.45 49.9314 Q1172.45 58.1548 1175.82 62.8538 Q1179.22 67.5124 1185.13 67.5124 Q1191.05 67.5124 1194.45 62.8538 Q1197.85 58.1548 1197.85 49.9314 Q1197.85 41.7081 1194.45 37.0496 Q1191.05 32.3505 1185.13 32.3505 Q1179.22 32.3505 1175.82 37.0496 Q1172.45 41.7081 1172.45 49.9314 Z" fill="#000000" fill-rule="nonzero" fill-opacity="1"></path><path clip-path="url(#clip370)" d="M1276.04 44.2197 Q1278.67 45.1109 1281.14 48.0275 Q1283.65 50.9442 1286.16 56.0483 L1294.47 72.576 L1285.68 72.576 L1277.94 57.061 Q1274.94 50.9847 1272.11 48.9997 Q1269.31 47.0148 1264.45 47.0148 L1255.54 47.0148 L1255.54 72.576 L1247.36 72.576 L1247.36 12.096 L1265.83 12.096 Q1276.2 12.096 1281.3 16.4305 Q1286.41 20.7649 1286.41 29.5149 Q1286.41 35.2267 1283.73 38.994 Q1281.1 42.7613 1276.04 44.2197 M1255.54 18.8205 L1255.54 40.2903 L1265.83 40.2903 Q1271.74 40.2903 1274.74 37.5762 Q1277.78 34.8216 1277.78 29.5149 Q1277.78 24.2082 1274.74 21.5346 Q1271.74 18.8205 1265.83 18.8205 L1255.54 18.8205 Z" fill="#000000" fill-rule="nonzero" fill-opacity="1"></path><path clip-path="url(#clip370)" d="M1305 12.096 L1339.76 12.096 L1339.76 18.9825 L1313.18 18.9825 L1313.18 36.8065 L1337.16 36.8065 L1337.16 43.6931 L1313.18 43.6931 L1313.18 72.576 L1305 72.576 L1305 12.096 Z" fill="#000000" fill-rule="nonzero" fill-opacity="1"></path><path clip-path="url(#clip370)" d="M1415.35 14.0809 L1415.35 22.0612 Q1410.69 19.8332 1406.56 18.7395 Q1402.42 17.6457 1398.58 17.6457 Q1391.89 17.6457 1388.25 20.2383 Q1384.64 22.8309 1384.64 27.611 Q1384.64 31.6214 1387.03 33.6873 Q1389.46 35.7128 1396.19 36.9686 L1401.13 37.9813 Q1410.28 39.7232 1414.62 44.1387 Q1418.99 48.5136 1418.99 55.8863 Q1418.99 64.6767 1413.08 69.2137 Q1407.2 73.7508 1395.82 73.7508 Q1391.53 73.7508 1386.67 72.7785 Q1381.85 71.8063 1376.66 69.9024 L1376.66 61.4765 Q1381.64 64.2716 1386.42 65.6895 Q1391.2 67.1073 1395.82 67.1073 Q1402.83 67.1073 1406.64 64.3527 Q1410.45 61.598 1410.45 56.4939 Q1410.45 52.0379 1407.69 49.5264 Q1404.98 47.0148 1398.74 45.759 L1393.76 44.7868 Q1384.6 42.9639 1380.51 39.075 Q1376.42 35.1862 1376.42 28.2591 Q1376.42 20.2383 1382.05 15.6203 Q1387.72 11.0023 1397.64 11.0023 Q1401.9 11.0023 1406.31 11.7719 Q1410.73 12.5416 1415.35 14.0809 Z" fill="#000000" fill-rule="nonzero" fill-opacity="1"></path><path clip-path="url(#clip370)" d="M1431.43 9.54393 L1438.88 9.54393 L1438.88 72.576 L1431.43 72.576 L1431.43 9.54393 Z" fill="#000000" fill-rule="nonzero" fill-opacity="1"></path><path clip-path="url(#clip370)" d="M1454.48 27.2059 L1461.93 27.2059 L1461.93 72.576 L1454.48 72.576 L1454.48 27.2059 M1454.48 9.54393 L1461.93 9.54393 L1461.93 18.9825 L1454.48 18.9825 L1454.48 9.54393 Z" fill="#000000" fill-rule="nonzero" fill-opacity="1"></path><path clip-path="url(#clip370)" d="M1510.18 28.9478 L1510.18 35.9153 Q1507.02 34.1734 1503.82 33.3227 Q1500.66 32.4315 1497.42 32.4315 Q1490.17 32.4315 1486.16 37.0496 Q1482.15 41.6271 1482.15 49.9314 Q1482.15 58.2358 1486.16 62.8538 Q1490.17 67.4314 1497.42 67.4314 Q1500.66 67.4314 1503.82 66.5807 Q1507.02 65.6895 1510.18 63.9476 L1510.18 70.8341 Q1507.06 72.2924 1503.7 73.0216 Q1500.38 73.7508 1496.61 73.7508 Q1486.36 73.7508 1480.32 67.3098 Q1474.29 60.8689 1474.29 49.9314 Q1474.29 38.832 1480.36 32.472 Q1486.48 26.1121 1497.09 26.1121 Q1500.54 26.1121 1503.82 26.8413 Q1507.1 27.5299 1510.18 28.9478 Z" fill="#000000" fill-rule="nonzero" fill-opacity="1"></path><path clip-path="url(#clip370)" d="M1561.95 48.0275 L1561.95 51.6733 L1527.68 51.6733 Q1528.16 59.3701 1532.3 63.421 Q1536.47 67.4314 1543.88 67.4314 Q1548.18 67.4314 1552.19 66.3781 Q1556.24 65.3249 1560.21 63.2184 L1560.21 70.267 Q1556.2 71.9684 1551.98 72.8596 Q1547.77 73.7508 1543.44 73.7508 Q1532.58 73.7508 1526.22 67.4314 Q1519.9 61.1119 1519.9 50.3365 Q1519.9 39.1965 1525.9 32.6746 Q1531.93 26.1121 1542.14 26.1121 Q1551.3 26.1121 1556.6 32.0264 Q1561.95 37.9003 1561.95 48.0275 M1554.5 45.84 Q1554.41 39.7232 1551.05 36.0774 Q1547.73 32.4315 1542.22 32.4315 Q1535.98 32.4315 1532.22 35.9558 Q1528.49 39.4801 1527.92 45.8805 L1554.5 45.84 Z" fill="#000000" fill-rule="nonzero" fill-opacity="1"></path><path clip-path="url(#clip370)" d="M1609.06 18.8205 L1609.06 41.5461 L1619.35 41.5461 Q1625.06 41.5461 1628.18 38.5889 Q1631.3 35.6318 1631.3 30.163 Q1631.3 24.7348 1628.18 21.7777 Q1625.06 18.8205 1619.35 18.8205 L1609.06 18.8205 M1600.88 12.096 L1619.35 12.096 Q1629.52 12.096 1634.7 16.714 Q1639.93 21.2916 1639.93 30.163 Q1639.93 39.1155 1634.7 43.6931 Q1629.52 48.2706 1619.35 48.2706 L1609.06 48.2706 L1609.06 72.576 L1600.88 72.576 L1600.88 12.096 Z" fill="#000000" fill-rule="nonzero" fill-opacity="1"></path><path clip-path="url(#clip370)" d="M1675.41 34.1734 Q1674.16 33.4443 1672.66 33.1202 Q1671.2 32.7556 1669.42 32.7556 Q1663.1 32.7556 1659.7 36.8875 Q1656.34 40.9789 1656.34 48.6757 L1656.34 72.576 L1648.84 72.576 L1648.84 27.2059 L1656.34 27.2059 L1656.34 34.2544 Q1658.68 30.1225 1662.45 28.1376 Q1666.22 26.1121 1671.61 26.1121 Q1672.38 26.1121 1673.31 26.2337 Q1674.24 26.3147 1675.37 26.5172 L1675.41 34.1734 Z" fill="#000000" fill-rule="nonzero" fill-opacity="1"></path><path clip-path="url(#clip370)" d="M1698.99 32.4315 Q1693 32.4315 1689.51 37.1306 Q1686.03 41.7891 1686.03 49.9314 Q1686.03 58.0738 1689.47 62.7728 Q1692.96 67.4314 1698.99 67.4314 Q1704.95 67.4314 1708.43 62.7323 Q1711.91 58.0333 1711.91 49.9314 Q1711.91 41.8701 1708.43 37.1711 Q1704.95 32.4315 1698.99 32.4315 M1698.99 26.1121 Q1708.71 26.1121 1714.26 32.4315 Q1719.81 38.7509 1719.81 49.9314 Q1719.81 61.0714 1714.26 67.4314 Q1708.71 73.7508 1698.99 73.7508 Q1689.23 73.7508 1683.68 67.4314 Q1678.17 61.0714 1678.17 49.9314 Q1678.17 38.7509 1683.68 32.4315 Q1689.23 26.1121 1698.99 26.1121 Z" fill="#000000" fill-rule="nonzero" fill-opacity="1"></path><path clip-path="url(#clip370)" d="M1755.14 9.54393 L1755.14 15.7418 L1748.01 15.7418 Q1744 15.7418 1742.42 17.3622 Q1740.88 18.9825 1740.88 23.1955 L1740.88 27.2059 L1753.15 27.2059 L1753.15 32.9987 L1740.88 32.9987 L1740.88 72.576 L1733.38 72.576 L1733.38 32.9987 L1726.25 32.9987 L1726.25 27.2059 L1733.38 27.2059 L1733.38 24.0462 Q1733.38 16.471 1736.91 13.0277 Q1740.43 9.54393 1748.09 9.54393 L1755.14 9.54393 Z" fill="#000000" fill-rule="nonzero" fill-opacity="1"></path><path clip-path="url(#clip370)" d="M1761.38 27.2059 L1768.83 27.2059 L1768.83 72.576 L1761.38 72.576 L1761.38 27.2059 M1761.38 9.54393 L1768.83 9.54393 L1768.83 18.9825 L1761.38 18.9825 L1761.38 9.54393 Z" fill="#000000" fill-rule="nonzero" fill-opacity="1"></path><path clip-path="url(#clip370)" d="M1784.42 9.54393 L1791.88 9.54393 L1791.88 72.576 L1784.42 72.576 L1784.42 9.54393 Z" fill="#000000" fill-rule="nonzero" fill-opacity="1"></path><path clip-path="url(#clip370)" d="M1846.28 48.0275 L1846.28 51.6733 L1812.01 51.6733 Q1812.5 59.3701 1816.63 63.421 Q1820.8 67.4314 1828.22 67.4314 Q1832.51 67.4314 1836.52 66.3781 Q1840.57 65.3249 1844.54 63.2184 L1844.54 70.267 Q1840.53 71.9684 1836.32 72.8596 Q1832.1 73.7508 1827.77 73.7508 Q1816.91 73.7508 1810.55 67.4314 Q1804.23 61.1119 1804.23 50.3365 Q1804.23 39.1965 1810.23 32.6746 Q1816.26 26.1121 1826.47 26.1121 Q1835.63 26.1121 1840.93 32.0264 Q1846.28 37.9003 1846.28 48.0275 M1838.83 45.84 Q1838.75 39.7232 1835.39 36.0774 Q1832.06 32.4315 1826.55 32.4315 Q1820.32 32.4315 1816.55 35.9558 Q1812.82 39.4801 1812.25 45.8805 L1838.83 45.84 Z" fill="#000000" fill-rule="nonzero" fill-opacity="1"></path><polyline clip-path="url(#clip372)" style="stroke:#0000ff; stroke-linecap:round; stroke-linejoin:round; stroke-width:8; stroke-opacity:1; fill:none" points="344.853,955.225 351.373,954.903 357.893,954.699 364.413,954.659 370.932,954.763 377.452,954.93 383.972,954.996 390.492,954.777 397.012,954.081 403.531,952.805 410.051,950.948 416.571,948.61 423.091,946.019 429.611,943.454 436.13,941.198 442.65,939.496 449.17,938.516 455.69,938.3 462.21,938.813 468.729,939.883 475.249,941.222 481.769,942.527 488.289,943.441 494.809,943.715 501.328,943.217 507.848,941.969 514.368,940.174 520.888,938.134 527.408,936.191 533.927,934.669 540.447,933.813 546.967,933.769 553.487,934.577 560.007,936.14 566.526,938.29 573.046,940.758 579.566,943.206 586.086,945.332 592.606,946.799 599.125,947.419 605.645,947.082 612.165,945.812 618.685,943.698 625.205,940.934 631.724,937.718 638.244,934.252 644.764,930.726 651.284,927.266 657.804,924.053 664.323,921.18 670.843,918.703 677.363,916.675 683.883,915.056 690.403,913.785 696.922,912.699 703.442,911.641 709.962,910.42 716.482,908.869 723.002,906.922 729.521,904.511 736.041,901.823 742.561,899.043 749.081,896.424 755.601,894.21 762.12,892.563 768.64,891.543 775.16,891.026 781.68,890.683 788.2,890.08 794.719,888.674 801.239,885.931 807.759,881.544 814.279,875.48 820.799,868.036 827.318,859.776 833.838,851.405 840.358,843.636 846.878,837.058 853.398,832.061 859.917,828.739 866.437,826.884 872.957,825.948 879.477,825.038 885.997,823.161 892.516,819.315 899.036,812.76 905.556,803.316 912.076,791.366 918.596,777.803 925.115,763.691 931.635,750.264 938.155,738.387 944.675,728.916 951.195,722.117 957.714,717.927 964.234,715.752 970.754,714.689 977.274,713.412 983.794,710.534 990.313,704.763 996.833,695.385 1003.35,682.404 1009.87,666.497 1016.39,649.03 1022.91,631.589 1029.43,615.78 1035.95,603.038 1042.47,594.454 1048.99,590.781 1055.51,592.485 1062.03,599.608 1068.55,611.811 1075.07,628.444 1081.59,648.45 1088.11,670.489 1094.63,692.824 1101.15,713.794 1107.67,731.789 1114.19,745.703 1120.71,755.178 1127.23,760.695 1133.75,763.366 1140.27,764.566 1146.79,765.555 1153.31,767.23 1159.83,769.971 1166.35,773.793 1172.87,778.269 1179.39,782.831 1185.91,786.847 1192.43,789.916 1198.95,791.963 1205.47,793.239 1211.99,794.34 1218.51,795.967 1225.03,798.754 1231.55,803.106 1238.07,809.058 1244.59,816.212 1251.11,823.679 1257.63,830.286 1264.14,834.663 1270.66,835.651 1277.18,832.835 1283.7,826.535 1290.22,817.936 1296.74,808.583 1303.26,799.984 1309.78,793.487 1316.3,790.004 1322.82,790.004 1329.34,793.487 1335.86,799.984 1342.38,808.583 1348.9,817.936 1355.42,826.535 1361.94,832.835 1368.46,835.651 1374.98,834.663 1381.5,830.286 1388.02,823.679 1394.54,816.212 1401.06,809.058 1407.58,803.106 1414.1,798.754 1420.62,795.967 1427.14,794.34 1433.66,793.239 1440.18,791.963 1446.7,789.916 1453.22,786.847 1459.74,782.831 1466.26,778.269 1472.78,773.793 1479.3,769.971 1485.82,767.23 1492.34,765.555 1498.86,764.566 1505.38,763.366 1511.9,760.695 1518.42,755.178 1524.94,745.703 1531.46,731.789 1537.98,713.794 1544.5,692.824 1551.02,670.489 1557.54,648.45 1564.06,628.444 1570.58,611.811 1577.1,599.608 1583.62,592.485 1590.13,590.781 1596.65,594.454 1603.17,603.038 1609.69,615.78 1616.21,631.589 1622.73,649.03 1629.25,666.497 1635.77,682.404 1642.29,695.385 1648.81,704.763 1655.33,710.534 1661.85,713.412 1668.37,714.689 1674.89,715.752 1681.41,717.927 1687.93,722.117 1694.45,728.916 1700.97,738.387 1707.49,750.264 1714.01,763.691 1720.53,777.803 1727.05,791.366 1733.57,803.316 1740.09,812.76 1746.61,819.315 1753.13,823.161 1759.65,825.038 1766.17,825.948 1772.69,826.884 1779.21,828.739 1785.73,832.061 1792.25,837.058 1798.77,843.636 1805.29,851.405 1811.81,859.776 1818.33,868.036 1824.85,875.48 1831.37,881.544 1837.89,885.931 1844.41,888.674 1850.93,890.08 1857.45,890.683 1863.97,891.026 1870.49,891.543 1877.01,892.563 1883.53,894.21 1890.05,896.424 1896.57,899.043 1903.09,901.823 1909.61,904.511 1916.12,906.922 1922.64,908.869 1929.16,910.42 1935.68,911.641 1942.2,912.699 1948.72,913.785 1955.24,915.056 1961.76,916.675 1968.28,918.703 1974.8,921.18 1981.32,924.053 1987.84,927.266 1994.36,930.726 2000.88,934.252 2007.4,937.718 2013.92,940.934 2020.44,943.698 2026.96,945.812 2033.48,947.082 2040,947.419 2046.52,946.799 2053.04,945.332 2059.56,943.206 2066.08,940.758 2072.6,938.29 2079.12,936.14 2085.64,934.577 2092.16,933.769 2098.68,933.813 2105.2,934.669 2111.72,936.191 2118.24,938.134 2124.76,940.174 2131.28,941.969 2137.8,943.217 2144.32,943.715 2150.84,943.441 2157.36,942.527 2163.88,941.222 2170.4,939.883 2176.92,938.813 2183.44,938.3 2189.96,938.516 2196.48,939.496 2203,941.198 2209.52,943.454 2216.04,946.019 2222.56,948.61 2229.08,950.948 2235.6,952.805 2242.11,954.081 2248.63,954.777 2255.15,954.996 2261.67,954.93 2268.19,954.763 2274.71,954.659 2281.23,954.699 2287.75,954.903 2294.27,955.225 "></polyline>
<polyline clip-path="url(#clip372)" style="stroke:#ff0000; stroke-linecap:round; stroke-linejoin:round; stroke-width:4; stroke-opacity:0.7; fill:none" points="344.853,1124.83 351.373,1125.32 357.893,1125.72 364.413,1125.94 370.932,1125.97 377.452,1125.84 383.972,1125.69 390.492,1125.71 397.012,1126.11 403.531,1127.04 410.051,1128.61 416.571,1130.8 423.091,1133.45 429.611,1136.34 436.13,1139.13 442.65,1141.52 449.17,1143.22 455.69,1144.11 462.21,1144.14 468.729,1143.46 475.249,1142.35 481.769,1141.12 488.289,1140.17 494.809,1139.77 501.328,1140.1 507.848,1141.2 514.368,1142.95 520.888,1145.08 527.408,1147.24 533.927,1149.08 540.447,1150.28 546.967,1150.64 553.487,1150.06 560.007,1148.64 566.526,1146.57 573.046,1144.12 579.566,1141.65 586.086,1139.46 592.606,1137.84 599.125,1136.95 605.645,1136.91 612.165,1137.71 618.685,1139.32 625.205,1141.61 631.724,1144.43 638.244,1147.64 644.764,1151.06 651.284,1154.55 657.804,1157.92 664.323,1161.03 670.843,1163.8 677.363,1166.12 683.883,1168.01 690.403,1169.5 696.922,1170.74 703.442,1171.88 709.962,1173.13 716.482,1174.67 723.002,1176.6 729.521,1179.01 736.041,1181.74 742.561,1184.63 749.081,1187.41 755.601,1189.82 762.12,1191.65 768.64,1192.81 775.16,1193.41 781.68,1193.75 788.2,1194.26 794.719,1195.45 801.239,1197.87 807.759,1201.86 814.279,1207.56 820.799,1214.79 827.318,1223.11 833.838,1231.82 840.358,1240.11 846.878,1247.23 853.398,1252.64 859.917,1256.18 866.437,1258.07 872.957,1258.94 879.477,1259.8 885.997,1261.69 892.516,1265.58 899.036,1272.18 905.556,1281.63 912.076,1293.57 918.596,1307.06 925.115,1320.86 931.635,1333.45 938.155,1343.68 944.675,1350.49 951.195,1353.7 957.714,1353.69 964.234,1351.56 970.754,1348.75 977.274,1346.89 983.794,1347.33 990.313,1350.92 996.833,1357.6 1003.35,1366.45 1009.87,1375.79 1016.39,1383.27 1022.91,1386.4 1029.43,1382.95 1035.95,1371.36 1042.47,1351.1 1048.99,1322.78 1055.51,1288.08 1062.03,1249.6 1068.55,1210.42 1075.07,1173.58 1081.59,1141.75 1088.11,1116.69 1094.63,1099.22 1101.15,1089.01 1107.67,1084.84 1114.19,1084.87 1120.71,1087.06 1127.23,1089.5 1133.75,1090.76 1140.27,1090.07 1146.79,1087.33 1153.31,1083 1159.83,1077.91 1166.35,1072.92 1172.87,1068.75 1179.39,1065.73 1185.91,1063.78 1192.43,1062.45 1198.95,1061.1 1205.47,1059.1 1211.99,1056.04 1218.51,1051.88 1225.03,1047.05 1231.55,1042.31 1238.07,1038.65 1244.59,1037.01 1251.11,1038.04 1257.63,1041.89 1264.14,1048.14 1270.66,1055.8 1277.18,1063.47 1283.7,1069.61 1290.22,1072.84 1296.74,1072.24 1303.26,1067.53 1309.78,1059.18 1316.3,1048.34 1322.82,1036.61 1329.34,1025.77 1335.86,1017.42 1342.38,1012.72 1348.9,1012.11 1355.42,1015.34 1361.94,1021.49 1368.46,1029.16 1374.98,1036.82 1381.5,1043.07 1388.02,1046.92 1394.54,1047.95 1401.06,1046.3 1407.58,1042.64 1414.1,1037.91 1420.62,1033.07 1427.14,1028.92 1433.66,1025.85 1440.18,1023.85 1446.7,1022.5 1453.22,1021.18 1459.74,1019.23 1466.26,1016.21 1472.78,1012.04 1479.3,1007.05 1485.82,1001.96 1492.34,997.627 1498.86,994.883 1505.38,994.192 1511.9,995.457 1518.42,997.899 1524.94,1000.09 1531.46,1000.12 1537.98,995.945 1544.5,985.736 1551.02,968.266 1557.54,943.202 1564.06,911.373 1570.58,874.537 1577.1,835.357 1583.62,796.872 1590.13,762.176 1596.65,733.857 1603.17,713.6 1609.69,702.007 1616.21,698.559 1622.73,701.687 1629.25,709.16 1635.77,718.501 1642.29,727.354 1648.81,734.036 1655.33,737.62 1661.85,738.065 1668.37,736.209 1674.89,733.397 1681.41,731.269 1687.93,731.255 1694.45,734.461 1700.97,741.278 1707.49,751.501 1714.01,764.096 1720.53,777.895 1727.05,791.381 1733.57,803.322 1740.09,812.779 1746.61,819.372 1753.13,823.263 1759.65,825.15 1766.17,826.011 1772.69,826.89 1779.21,828.776 1785.73,832.312 1792.25,837.727 1798.77,844.849 1805.29,853.136 1811.81,861.841 1818.33,870.161 1824.85,877.399 1831.37,883.095 1837.89,887.085 1844.41,889.503 1850.93,890.699 1857.45,891.206 1863.97,891.547 1870.49,892.141 1877.01,893.305 1883.53,895.137 1890.05,897.544 1896.57,900.327 1903.09,903.215 1909.61,905.948 1916.12,908.357 1922.64,910.282 1929.16,911.823 1935.68,913.075 1942.2,914.22 1948.72,915.459 1955.24,916.947 1961.76,918.835 1968.28,921.159 1974.8,923.925 1981.32,927.04 1987.84,930.407 1994.36,933.899 2000.88,937.313 2007.4,940.52 2013.92,943.348 2020.44,945.635 2026.96,947.243 2033.48,948.045 2040,948.002 2046.52,947.119 2053.04,945.498 2059.56,943.301 2066.08,940.834 2072.6,938.388 2079.12,936.311 2085.64,934.892 2092.16,934.318 2098.68,934.671 2105.2,935.874 2111.72,937.715 2118.24,939.88 2124.76,942.006 2131.28,943.751 2137.8,944.858 2144.32,945.187 2150.84,944.785 2157.36,943.831 2163.88,942.609 2170.4,941.497 2176.92,940.815 2183.44,940.846 2189.96,941.731 2196.48,943.437 2203,945.822 2209.52,948.618 2216.04,951.501 2222.56,954.159 2229.08,956.347 2235.6,957.91 2242.11,958.848 2248.63,959.244 2255.15,959.263 2261.67,959.118 2268.19,958.987 2274.71,959.012 2281.23,959.232 2287.75,959.63 2294.27,960.126 "></polyline>
<polyline clip-path="url(#clip372)" style="stroke:#008000; stroke-linecap:round; stroke-linejoin:round; stroke-width:4; stroke-opacity:0.7; fill:none" points="344.853,1071.31 351.373,1070.86 357.893,1070.32 364.413,1069.78 370.932,1069.37 377.452,1069.23 383.972,1069.46 390.492,1070.11 397.012,1071.11 403.531,1072.3 410.051,1073.45 416.571,1074.27 423.091,1074.53 429.611,1074.04 436.13,1072.73 442.65,1070.69 449.17,1068.13 455.69,1065.37 462.21,1062.75 468.729,1060.6 475.249,1059.18 481.769,1058.57 488.289,1058.74 494.809,1059.47 501.328,1060.45 507.848,1061.32 514.368,1061.75 520.888,1061.49 527.408,1060.41 533.927,1058.55 540.447,1056.11 546.967,1053.38 553.487,1050.72 560.007,1048.49 566.526,1046.99 573.046,1046.41 579.566,1046.81 586.086,1048.16 592.606,1050.29 599.125,1052.99 605.645,1055.99 612.165,1059.05 618.685,1061.94 625.205,1064.49 631.724,1066.54 638.244,1068.03 644.764,1068.92 651.284,1069.2 657.804,1068.91 664.323,1068.14 670.843,1067.01 677.363,1065.69 683.883,1064.35 690.403,1063.17 696.922,1062.29 703.442,1061.79 709.962,1061.68 716.482,1061.86 723.002,1062.15 729.521,1062.34 736.041,1062.22 742.561,1061.62 749.081,1060.53 755.601,1059.03 762.12,1057.37 768.64,1055.91 775.16,1055.03 781.68,1055.06 788.2,1056.21 794.719,1058.43 801.239,1061.45 807.759,1064.77 814.279,1067.72 820.799,1069.62 827.318,1069.87 833.838,1068.13 840.358,1064.4 846.878,1059.05 853.398,1052.76 859.917,1046.43 866.437,1041 872.957,1037.23 879.477,1035.51 885.997,1035.78 892.516,1037.46 899.036,1039.53 905.556,1040.72 912.076,1039.72 918.596,1035.51 925.115,1027.46 931.635,1015.62 938.155,1000.64 944.675,983.77 951.195,966.51 957.714,950.378 964.234,936.558 970.754,925.664 977.274,917.509 983.794,911.142 990.313,904.944 996.833,896.977 1003.35,885.342 1009.87,868.521 1016.39,845.848 1022.91,817.646 1029.43,785.281 1035.95,751.022 1042.47,717.702 1048.99,688.273 1055.51,665.421 1062.03,651.026 1068.55,645.905 1075.07,649.749 1081.59,661.161 1088.11,677.967 1094.63,697.458 1101.15,717.105 1107.67,734.691 1114.19,748.746 1120.71,758.657 1127.23,764.646 1133.75,767.575 1140.27,768.672 1146.79,769.211 1153.31,770.229 1159.83,772.284 1166.35,775.523 1172.87,779.579 1179.39,783.874 1185.91,787.736 1192.43,790.707 1198.95,792.657 1205.47,793.794 1211.99,794.71 1218.51,796.146 1225.03,798.797 1231.55,803.106 1238.07,809.089 1244.59,816.278 1251.11,823.724 1257.63,830.286 1264.14,834.741 1270.66,836.081 1277.18,833.888 1283.7,828.246 1290.22,819.998 1296.74,810.484 1303.26,801.282 1309.78,794.048 1316.3,790.072 1322.82,790.072 1329.34,794.048 1335.86,801.282 1342.38,810.484 1348.9,819.998 1355.42,828.246 1361.94,833.888 1368.46,836.081 1374.98,834.741 1381.5,830.286 1388.02,823.724 1394.54,816.278 1401.06,809.089 1407.58,803.106 1414.1,798.797 1420.62,796.146 1427.14,794.71 1433.66,793.794 1440.18,792.657 1446.7,790.707 1453.22,787.736 1459.74,783.874 1466.26,779.579 1472.78,775.523 1479.3,772.284 1485.82,770.229 1492.34,769.211 1498.86,768.672 1505.38,767.575 1511.9,764.646 1518.42,758.657 1524.94,748.746 1531.46,734.691 1537.98,717.105 1544.5,697.458 1551.02,677.967 1557.54,661.161 1564.06,649.749 1570.58,645.905 1577.1,651.026 1583.62,665.421 1590.13,688.273 1596.65,717.702 1603.17,751.022 1609.69,785.281 1616.21,817.646 1622.73,845.848 1629.25,868.521 1635.77,885.342 1642.29,896.977 1648.81,904.944 1655.33,911.142 1661.85,917.509 1668.37,925.664 1674.89,936.558 1681.41,950.378 1687.93,966.51 1694.45,983.77 1700.97,1000.64 1707.49,1015.62 1714.01,1027.46 1720.53,1035.51 1727.05,1039.72 1733.57,1040.72 1740.09,1039.53 1746.61,1037.46 1753.13,1035.78 1759.65,1035.51 1766.17,1037.23 1772.69,1041 1779.21,1046.43 1785.73,1052.76 1792.25,1059.05 1798.77,1064.4 1805.29,1068.13 1811.81,1069.87 1818.33,1069.62 1824.85,1067.72 1831.37,1064.77 1837.89,1061.45 1844.41,1058.43 1850.93,1056.21 1857.45,1055.06 1863.97,1055.03 1870.49,1055.91 1877.01,1057.37 1883.53,1059.03 1890.05,1060.53 1896.57,1061.62 1903.09,1062.22 1909.61,1062.34 1916.12,1062.15 1922.64,1061.86 1929.16,1061.68 1935.68,1061.79 1942.2,1062.29 1948.72,1063.17 1955.24,1064.35 1961.76,1065.69 1968.28,1067.01 1974.8,1068.14 1981.32,1068.91 1987.84,1069.2 1994.36,1068.92 2000.88,1068.03 2007.4,1066.54 2013.92,1064.49 2020.44,1061.94 2026.96,1059.05 2033.48,1055.99 2040,1052.99 2046.52,1050.29 2053.04,1048.16 2059.56,1046.81 2066.08,1046.41 2072.6,1046.99 2079.12,1048.49 2085.64,1050.72 2092.16,1053.38 2098.68,1056.11 2105.2,1058.55 2111.72,1060.41 2118.24,1061.49 2124.76,1061.75 2131.28,1061.32 2137.8,1060.45 2144.32,1059.47 2150.84,1058.74 2157.36,1058.57 2163.88,1059.18 2170.4,1060.6 2176.92,1062.75 2183.44,1065.37 2189.96,1068.13 2196.48,1070.69 2203,1072.73 2209.52,1074.04 2216.04,1074.53 2222.56,1074.27 2229.08,1073.45 2235.6,1072.3 2242.11,1071.11 2248.63,1070.11 2255.15,1069.46 2261.67,1069.23 2268.19,1069.37 2274.71,1069.78 2281.23,1070.32 2287.75,1070.86 2294.27,1071.31 "></polyline>
<polyline clip-path="url(#clip372)" style="stroke:#ffa500; stroke-linecap:round; stroke-linejoin:round; stroke-width:4; stroke-opacity:0.7; fill:none" points="344.853,160.313 351.373,160.269 357.893,160.303 364.413,160.333 370.932,160.283 377.452,160.283 383.972,160.256 390.492,160.309 397.012,160.354 403.531,160.476 410.051,160.73 416.571,160.95 423.091,161.221 429.611,161.505 436.13,161.767 442.65,161.978 449.17,162.135 455.69,162.078 462.21,162.028 468.729,161.957 475.249,161.742 481.769,161.65 488.289,161.494 494.809,161.453 501.328,161.552 507.848,161.663 514.368,161.867 520.888,162.101 527.408,162.334 533.927,162.518 540.447,162.626 546.967,162.638 553.487,162.568 560.007,162.334 566.526,162.089 573.046,161.857 579.566,161.52 586.086,161.377 592.606,161.134 599.125,161.052 605.645,161.082 612.165,161.288 618.685,161.497 625.205,161.808 631.724,162.189 638.244,162.629 644.764,163.153 651.284,163.46 657.804,163.897 664.323,164.336 670.843,164.626 677.363,164.948 683.883,165.145 690.403,165.393 696.922,165.503 703.442,165.646 709.962,165.824 716.482,166.054 723.002,166.518 729.521,166.733 736.041,167.163 742.561,167.622 749.081,168.061 755.601,168.458 762.12,168.698 768.64,168.892 775.16,169.041 781.68,169.039 788.2,169.13 794.719,169.416 801.239,169.876 807.759,170.671 814.279,171.805 820.799,173.268 827.318,174.965 833.838,176.771 840.358,178.528 846.878,180.074 853.398,181.303 859.917,182.086 866.437,182.56 872.957,182.854 879.477,183.024 885.997,183.487 892.516,184.512 899.036,186.222 905.556,188.804 912.076,192.237 918.596,196.471 925.115,200.994 931.635,205.681 938.155,209.721 944.675,213.248 951.195,215.861 957.714,217.546 964.234,218.343 970.754,218.791 977.274,219.271 983.794,220.468 990.313,222.787 996.833,226.706 1003.35,232.428 1009.87,239.651 1016.39,248.054 1022.91,256.928 1029.43,265.404 1035.95,272.559 1042.47,277.561 1048.99,279.636 1055.51,278.645 1062.03,274.545 1068.55,267.579 1075.07,258.603 1081.59,248.321 1088.11,237.869 1094.63,227.83 1101.15,219.125 1107.67,212.162 1114.19,207.085 1120.71,203.776 1127.23,201.909 1133.75,201.021 1140.27,200.627 1146.79,200.319 1153.31,199.816 1159.83,198.859 1166.35,197.66 1172.87,196.221 1179.39,194.843 1185.91,193.597 1192.43,192.668 1198.95,192.108 1205.47,191.713 1211.99,191.381 1218.51,190.907 1225.03,190.104 1231.55,188.877 1238.07,187.242 1244.59,185.357 1251.11,183.358 1257.63,181.719 1264.14,180.7 1270.66,180.406 1277.18,181.148 1283.7,182.647 1290.22,184.844 1296.74,187.419 1303.26,189.779 1309.78,191.639 1316.3,192.66 1322.82,192.66 1329.34,191.639 1335.86,189.779 1342.38,187.419 1348.9,184.844 1355.42,182.647 1361.94,181.148 1368.46,180.406 1374.98,180.7 1381.5,181.719 1388.02,183.358 1394.54,185.357 1401.06,187.242 1407.58,188.877 1414.1,190.104 1420.62,190.907 1427.14,191.381 1433.66,191.713 1440.18,192.108 1446.7,192.668 1453.22,193.597 1459.74,194.843 1466.26,196.221 1472.78,197.66 1479.3,198.859 1485.82,199.816 1492.34,200.319 1498.86,200.627 1505.38,201.021 1511.9,201.909 1518.42,203.776 1524.94,207.085 1531.46,212.162 1537.98,219.125 1544.5,227.83 1551.02,237.869 1557.54,248.321 1564.06,258.603 1570.58,267.579 1577.1,274.545 1583.62,278.645 1590.13,279.636 1596.65,277.561 1603.17,272.559 1609.69,265.404 1616.21,256.928 1622.73,248.054 1629.25,239.651 1635.77,232.428 1642.29,226.706 1648.81,222.787 1655.33,220.468 1661.85,219.271 1668.37,218.791 1674.89,218.343 1681.41,217.546 1687.93,215.861 1694.45,213.248 1700.97,209.721 1707.49,205.681 1714.01,200.994 1720.53,196.471 1727.05,192.237 1733.57,188.804 1740.09,186.222 1746.61,184.512 1753.13,183.487 1759.65,183.024 1766.17,182.854 1772.69,182.56 1779.21,182.086 1785.73,181.303 1792.25,180.074 1798.77,178.528 1805.29,176.771 1811.81,174.965 1818.33,173.268 1824.85,171.805 1831.37,170.671 1837.89,169.876 1844.41,169.416 1850.93,169.13 1857.45,169.039 1863.97,169.041 1870.49,168.892 1877.01,168.698 1883.53,168.458 1890.05,168.061 1896.57,167.622 1903.09,167.163 1909.61,166.733 1916.12,166.518 1922.64,166.054 1929.16,165.824 1935.68,165.646 1942.2,165.503 1948.72,165.393 1955.24,165.145 1961.76,164.948 1968.28,164.626 1974.8,164.336 1981.32,163.897 1987.84,163.46 1994.36,163.153 2000.88,162.629 2007.4,162.189 2013.92,161.808 2020.44,161.497 2026.96,161.288 2033.48,161.082 2040,161.052 2046.52,161.134 2053.04,161.377 2059.56,161.52 2066.08,161.857 2072.6,162.089 2079.12,162.334 2085.64,162.568 2092.16,162.638 2098.68,162.626 2105.2,162.518 2111.72,162.334 2118.24,162.101 2124.76,161.867 2131.28,161.663 2137.8,161.552 2144.32,161.453 2150.84,161.494 2157.36,161.65 2163.88,161.742 2170.4,161.957 2176.92,162.028 2183.44,162.078 2189.96,162.135 2196.48,161.978 2203,161.767 2209.52,161.505 2216.04,161.221 2222.56,160.95 2229.08,160.73 2235.6,160.476 2242.11,160.354 2248.63,160.309 2255.15,160.256 2261.67,160.283 2268.19,160.283 2274.71,160.333 2281.23,160.303 2287.75,160.269 2294.27,160.313 "></polyline>
<path clip-path="url(#clip370)" d="M1623.95 1379.86 L2283.88 1379.86 L2283.88 1120.66 L1623.95 1120.66  Z" fill="#ffffff" fill-rule="evenodd" fill-opacity="1"></path>
<polyline clip-path="url(#clip370)" style="stroke:#000000; stroke-linecap:round; stroke-linejoin:round; stroke-width:4; stroke-opacity:1; fill:none" points="1623.95,1379.86 2283.88,1379.86 2283.88,1120.66 1623.95,1120.66 1623.95,1379.86 "></polyline>
<polyline clip-path="url(#clip370)" style="stroke:#0000ff; stroke-linecap:round; stroke-linejoin:round; stroke-width:8; stroke-opacity:1; fill:none" points="1646.91,1172.5 1784.67,1172.5 "></polyline>
<path clip-path="url(#clip370)" d="M1823.65 1158.39 Q1818.56 1158.39 1815.55 1162.18 Q1812.56 1165.98 1812.56 1172.53 Q1812.56 1179.06 1815.55 1182.85 Q1818.56 1186.65 1823.65 1186.65 Q1828.74 1186.65 1831.71 1182.85 Q1834.69 1179.06 1834.69 1172.53 Q1834.69 1165.98 1831.71 1162.18 Q1828.74 1158.39 1823.65 1158.39 M1823.65 1154.59 Q1830.92 1154.59 1835.27 1159.48 Q1839.62 1164.34 1839.62 1172.53 Q1839.62 1180.7 1835.27 1185.59 Q1830.92 1190.45 1823.65 1190.45 Q1816.36 1190.45 1811.98 1185.59 Q1807.63 1180.73 1807.63 1172.53 Q1807.63 1164.34 1811.98 1159.48 Q1816.36 1154.59 1823.65 1154.59 Z" fill="#000000" fill-rule="nonzero" fill-opacity="1"></path><path clip-path="url(#clip370)" d="M1850.87 1185.89 L1850.87 1199.64 L1846.59 1199.64 L1846.59 1163.85 L1850.87 1163.85 L1850.87 1167.79 Q1852.22 1165.47 1854.25 1164.36 Q1856.31 1163.23 1859.16 1163.23 Q1863.88 1163.23 1866.82 1166.98 Q1869.78 1170.73 1869.78 1176.84 Q1869.78 1182.95 1866.82 1186.7 Q1863.88 1190.45 1859.16 1190.45 Q1856.31 1190.45 1854.25 1189.34 Q1852.22 1188.2 1850.87 1185.89 M1865.36 1176.84 Q1865.36 1172.14 1863.42 1169.48 Q1861.5 1166.79 1858.12 1166.79 Q1854.74 1166.79 1852.79 1169.48 Q1850.87 1172.14 1850.87 1176.84 Q1850.87 1181.54 1852.79 1184.22 Q1854.74 1186.88 1858.12 1186.88 Q1861.5 1186.88 1863.42 1184.22 Q1865.36 1181.54 1865.36 1176.84 Z" fill="#000000" fill-rule="nonzero" fill-opacity="1"></path><path clip-path="url(#clip370)" d="M1881.06 1156.49 L1881.06 1163.85 L1889.83 1163.85 L1889.83 1167.16 L1881.06 1167.16 L1881.06 1181.23 Q1881.06 1184.41 1881.91 1185.31 Q1882.79 1186.21 1885.46 1186.21 L1889.83 1186.21 L1889.83 1189.78 L1885.46 1189.78 Q1880.53 1189.78 1878.65 1187.95 Q1876.78 1186.1 1876.78 1181.23 L1876.78 1167.16 L1873.65 1167.16 L1873.65 1163.85 L1876.78 1163.85 L1876.78 1156.49 L1881.06 1156.49 Z" fill="#000000" fill-rule="nonzero" fill-opacity="1"></path><path clip-path="url(#clip370)" d="M1895.43 1163.85 L1899.69 1163.85 L1899.69 1189.78 L1895.43 1189.78 L1895.43 1163.85 M1895.43 1153.76 L1899.69 1153.76 L1899.69 1159.15 L1895.43 1159.15 L1895.43 1153.76 Z" fill="#000000" fill-rule="nonzero" fill-opacity="1"></path><path clip-path="url(#clip370)" d="M1928.79 1168.83 Q1930.39 1165.96 1932.61 1164.59 Q1934.83 1163.23 1937.84 1163.23 Q1941.89 1163.23 1944.09 1166.07 Q1946.29 1168.9 1946.29 1174.13 L1946.29 1189.78 L1942.01 1189.78 L1942.01 1174.27 Q1942.01 1170.54 1940.69 1168.73 Q1939.37 1166.93 1936.66 1166.93 Q1933.35 1166.93 1931.43 1169.13 Q1929.51 1171.33 1929.51 1175.12 L1929.51 1189.78 L1925.22 1189.78 L1925.22 1174.27 Q1925.22 1170.52 1923.9 1168.73 Q1922.59 1166.93 1919.83 1166.93 Q1916.57 1166.93 1914.65 1169.15 Q1912.72 1171.35 1912.72 1175.12 L1912.72 1189.78 L1908.44 1189.78 L1908.44 1163.85 L1912.72 1163.85 L1912.72 1167.88 Q1914.18 1165.49 1916.22 1164.36 Q1918.26 1163.23 1921.06 1163.23 Q1923.88 1163.23 1925.85 1164.66 Q1927.84 1166.1 1928.79 1168.83 Z" fill="#000000" fill-rule="nonzero" fill-opacity="1"></path><path clip-path="url(#clip370)" d="M1954.78 1163.85 L1959.04 1163.85 L1959.04 1189.78 L1954.78 1189.78 L1954.78 1163.85 M1954.78 1153.76 L1959.04 1153.76 L1959.04 1159.15 L1954.78 1159.15 L1954.78 1153.76 Z" fill="#000000" fill-rule="nonzero" fill-opacity="1"></path><path clip-path="url(#clip370)" d="M1966.1 1163.85 L1986.33 1163.85 L1986.33 1167.74 L1970.32 1186.37 L1986.33 1186.37 L1986.33 1189.78 L1965.52 1189.78 L1965.52 1185.89 L1981.54 1167.25 L1966.1 1167.25 L1966.1 1163.85 Z" fill="#000000" fill-rule="nonzero" fill-opacity="1"></path><path clip-path="url(#clip370)" d="M2015.02 1175.75 L2015.02 1177.83 L1995.43 1177.83 Q1995.71 1182.23 1998.07 1184.54 Q2000.45 1186.84 2004.69 1186.84 Q2007.14 1186.84 2009.44 1186.23 Q2011.75 1185.63 2014.02 1184.43 L2014.02 1188.46 Q2011.73 1189.43 2009.32 1189.94 Q2006.91 1190.45 2004.44 1190.45 Q1998.23 1190.45 1994.6 1186.84 Q1990.99 1183.23 1990.99 1177.07 Q1990.99 1170.7 1994.41 1166.98 Q1997.86 1163.23 2003.7 1163.23 Q2008.93 1163.23 2011.96 1166.61 Q2015.02 1169.96 2015.02 1175.75 M2010.76 1174.5 Q2010.71 1171 2008.79 1168.92 Q2006.89 1166.84 2003.74 1166.84 Q2000.18 1166.84 1998.02 1168.85 Q1995.89 1170.86 1995.57 1174.52 L2010.76 1174.5 Z" fill="#000000" fill-rule="nonzero" fill-opacity="1"></path><path clip-path="url(#clip370)" d="M2039.07 1167.79 L2039.07 1153.76 L2043.33 1153.76 L2043.33 1189.78 L2039.07 1189.78 L2039.07 1185.89 Q2037.72 1188.2 2035.66 1189.34 Q2033.63 1190.45 2030.76 1190.45 Q2026.06 1190.45 2023.09 1186.7 Q2020.15 1182.95 2020.15 1176.84 Q2020.15 1170.73 2023.09 1166.98 Q2026.06 1163.23 2030.76 1163.23 Q2033.63 1163.23 2035.66 1164.36 Q2037.72 1165.47 2039.07 1167.79 M2024.55 1176.84 Q2024.55 1181.54 2026.47 1184.22 Q2028.42 1186.88 2031.8 1186.88 Q2035.18 1186.88 2037.12 1184.22 Q2039.07 1181.54 2039.07 1176.84 Q2039.07 1172.14 2037.12 1169.48 Q2035.18 1166.79 2031.8 1166.79 Q2028.42 1166.79 2026.47 1169.48 Q2024.55 1172.14 2024.55 1176.84 Z" fill="#000000" fill-rule="nonzero" fill-opacity="1"></path><path clip-path="url(#clip370)" d="M2083.74 1173.57 Q2085.25 1174.08 2086.66 1175.75 Q2088.09 1177.42 2089.53 1180.33 L2094.27 1189.78 L2089.25 1189.78 L2084.83 1180.91 Q2083.12 1177.44 2081.5 1176.3 Q2079.9 1175.17 2077.12 1175.17 L2072.03 1175.17 L2072.03 1189.78 L2067.35 1189.78 L2067.35 1155.22 L2077.91 1155.22 Q2083.83 1155.22 2086.75 1157.69 Q2089.67 1160.17 2089.67 1165.17 Q2089.67 1168.43 2088.14 1170.59 Q2086.64 1172.74 2083.74 1173.57 M2072.03 1159.06 L2072.03 1171.33 L2077.91 1171.33 Q2081.29 1171.33 2083 1169.78 Q2084.74 1168.2 2084.74 1165.17 Q2084.74 1162.14 2083 1160.61 Q2081.29 1159.06 2077.91 1159.06 L2072.03 1159.06 Z" fill="#000000" fill-rule="nonzero" fill-opacity="1"></path><path clip-path="url(#clip370)" d="M2100.29 1155.22 L2120.15 1155.22 L2120.15 1159.15 L2104.97 1159.15 L2104.97 1169.34 L2118.67 1169.34 L2118.67 1173.27 L2104.97 1173.27 L2104.97 1189.78 L2100.29 1189.78 L2100.29 1155.22 Z" fill="#000000" fill-rule="nonzero" fill-opacity="1"></path><path clip-path="url(#clip370)" d="M2147.93 1153.55 L2147.93 1200.96 L2144 1200.96 L2144 1153.55 L2147.93 1153.55 Z" fill="#000000" fill-rule="nonzero" fill-opacity="1"></path><path clip-path="url(#clip370)" d="M2158.6 1155.22 L2165.57 1155.22 L2174.39 1178.73 L2183.25 1155.22 L2190.22 1155.22 L2190.22 1189.78 L2185.66 1189.78 L2185.66 1159.43 L2176.75 1183.13 L2172.05 1183.13 L2163.14 1159.43 L2163.14 1189.78 L2158.6 1189.78 L2158.6 1155.22 Z" fill="#000000" fill-rule="nonzero" fill-opacity="1"></path><path clip-path="url(#clip370)" d="M2220.87 1163.85 L2211.5 1176.47 L2221.36 1189.78 L2216.33 1189.78 L2208.79 1179.59 L2201.24 1189.78 L2196.22 1189.78 L2206.29 1176.21 L2197.07 1163.85 L2202.1 1163.85 L2208.97 1173.09 L2215.85 1163.85 L2220.87 1163.85 Z" fill="#000000" fill-rule="nonzero" fill-opacity="1"></path><path clip-path="url(#clip370)" d="M2238.16 1192.18 Q2236.36 1196.81 2234.64 1198.23 Q2232.93 1199.64 2230.06 1199.64 L2226.66 1199.64 L2226.66 1196.07 L2229.16 1196.07 Q2230.92 1196.07 2231.89 1195.24 Q2232.86 1194.41 2234.04 1191.3 L2234.81 1189.36 L2224.32 1163.85 L2228.83 1163.85 L2236.94 1184.13 L2245.04 1163.85 L2249.55 1163.85 L2238.16 1192.18 Z" fill="#000000" fill-rule="nonzero" fill-opacity="1"></path><path clip-path="url(#clip370)" d="M2260.92 1153.55 L2260.92 1200.96 L2256.98 1200.96 L2256.98 1153.55 L2260.92 1153.55 Z" fill="#000000" fill-rule="nonzero" fill-opacity="1"></path><polyline clip-path="url(#clip370)" style="stroke:#ff0000; stroke-linecap:round; stroke-linejoin:round; stroke-width:4; stroke-opacity:0.7; fill:none" points="1646.91,1224.34 1784.67,1224.34 "></polyline>
<path clip-path="url(#clip370)" d="M1807.63 1207.06 L1814.6 1207.06 L1823.42 1230.57 L1832.28 1207.06 L1839.25 1207.06 L1839.25 1241.62 L1834.69 1241.62 L1834.69 1211.27 L1825.78 1234.97 L1821.08 1234.97 L1812.17 1211.27 L1812.17 1241.62 L1807.63 1241.62 L1807.63 1207.06 Z" fill="#000000" fill-rule="nonzero" fill-opacity="1"></path><path clip-path="url(#clip370)" d="M1869.9 1215.69 L1860.53 1228.31 L1870.39 1241.62 L1865.36 1241.62 L1857.82 1231.43 L1850.27 1241.62 L1845.25 1241.62 L1855.32 1228.05 L1846.1 1215.69 L1851.13 1215.69 L1858 1224.93 L1864.88 1215.69 L1869.9 1215.69 Z" fill="#000000" fill-rule="nonzero" fill-opacity="1"></path><polyline clip-path="url(#clip370)" style="stroke:#008000; stroke-linecap:round; stroke-linejoin:round; stroke-width:4; stroke-opacity:0.7; fill:none" points="1646.91,1276.18 1784.67,1276.18 "></polyline>
<path clip-path="url(#clip370)" d="M1807.63 1258.9 L1814.6 1258.9 L1823.42 1282.41 L1832.28 1258.9 L1839.25 1258.9 L1839.25 1293.46 L1834.69 1293.46 L1834.69 1263.11 L1825.78 1286.81 L1821.08 1286.81 L1812.17 1263.11 L1812.17 1293.46 L1807.63 1293.46 L1807.63 1258.9 Z" fill="#000000" fill-rule="nonzero" fill-opacity="1"></path><path clip-path="url(#clip370)" d="M1859.14 1295.86 Q1857.33 1300.49 1855.62 1301.91 Q1853.9 1303.32 1851.03 1303.32 L1847.63 1303.32 L1847.63 1299.75 L1850.13 1299.75 Q1851.89 1299.75 1852.86 1298.92 Q1853.84 1298.09 1855.02 1294.98 L1855.78 1293.04 L1845.29 1267.53 L1849.81 1267.53 L1857.91 1287.81 L1866.01 1267.53 L1870.53 1267.53 L1859.14 1295.86 Z" fill="#000000" fill-rule="nonzero" fill-opacity="1"></path><polyline clip-path="url(#clip370)" style="stroke:#ffa500; stroke-linecap:round; stroke-linejoin:round; stroke-width:4; stroke-opacity:0.7; fill:none" points="1646.91,1328.02 1784.67,1328.02 "></polyline>
<path clip-path="url(#clip370)" d="M1807.63 1310.74 L1814.6 1310.74 L1823.42 1334.25 L1832.28 1310.74 L1839.25 1310.74 L1839.25 1345.3 L1834.69 1345.3 L1834.69 1314.95 L1825.78 1338.65 L1821.08 1338.65 L1812.17 1314.95 L1812.17 1345.3 L1807.63 1345.3 L1807.63 1310.74 Z" fill="#000000" fill-rule="nonzero" fill-opacity="1"></path><path clip-path="url(#clip370)" d="M1846.5 1319.37 L1866.73 1319.37 L1866.73 1323.26 L1850.71 1341.89 L1866.73 1341.89 L1866.73 1345.3 L1845.92 1345.3 L1845.92 1341.41 L1861.94 1322.77 L1846.5 1322.77 L1846.5 1319.37 Z" fill="#000000" fill-rule="nonzero" fill-opacity="1"></path></svg>